<svg width="1024" height="768" version="1.1" xmlns="http://www.w3.org/2000/svg" desc="Created with imagetracer.js version 1.2.6" ><path fill="rgb(34,93,122)" stroke="rgb(34,93,122)" stroke-width="1" opacity="0.12549019607843137" d="M 914.5 128 L 941.5 129 L 959.5 134 L 975.5 143 L 986 153.5 L 994 168.5 L 997 183.5 L 993.5 186 L 983.5 187 L 973 184.5 L 976.5 184 L 977.5 185 L 988.5 186 L 993.5 185 L 996 182.5 L 993 168.5 Q 987.9 155.6 978.5 147 Q 967.1 136.9 950.5 132 L 940.5 130 L 933.5 130 L 932.5 129 L 914.5 129 L 913.5 130 L 902.5 131 L 886.5 136 L 870.5 146 L 863 153.5 L 854 168.5 L 852.5 175 L 852 171.5 Q 857.4 156.9 867.5 147 L 888.5 134 L 901.5 130 L 913.5 129 L 914.5 128 Z " /><path fill="rgb(34,93,122)" stroke="rgb(34,93,122)" stroke-width="1" opacity="0.12549019607843137" d="M 759.5 135 L 767.5 135 L 789.5 142 Q 798.3 146.3 804 153.5 Q 815.4 164.1 822 179.5 Q 826.8 190.2 827 205.5 L 823 221.5 Q 819.4 230.4 812.5 236 L 810.5 237 L 805 232.5 L 800 225.5 L 796 215.5 L 784 160.5 L 776 146.5 L 770.5 141 L 760.5 138 L 758.5 138 L 757 137.5 L 759.5 135 Z M 767 137 L 767 138 L 774 141 Q 781 148 785 159 L 793 190 L 797 212 L 805 231 Q 807 235 812 235 L 821 222 L 825 207 L 824 193 L 822 186 Q 816 170 806 159 Q 793 141 767 137 Z " /><path fill="rgb(34,93,122)" stroke="rgb(34,93,122)" stroke-width="1" opacity="0.12549019607843137" d="M 638.5 142 L 644 145.5 L 649 153.5 L 654 169.5 L 656 187.5 L 657 188.5 L 658 209.5 L 657 209.5 L 655 182.5 L 651 162.5 Q 648.1 150.9 640.5 144 L 635.5 145 L 627 153.5 Q 619.5 162.5 616.5 176 L 616 173.5 Q 621.2 154.7 634.5 144 L 638.5 142 Z " /><path fill="rgb(34,93,122)" stroke="rgb(34,93,122)" stroke-width="1" opacity="0.12549019607843137" d="M 887.5 152 L 896.5 153 L 913 159.5 L 911.5 160 L 899.5 155 L 887.5 153 L 880.5 157 L 880 155.5 L 887.5 152 Z " /><path fill="rgb(34,93,122)" stroke="rgb(34,93,122)" stroke-width="1" opacity="0.12549019607843137" d="M 879.5 158 L 880 167.5 L 879 167.5 L 879.5 158 Z " /><path fill="rgb(34,93,122)" stroke="rgb(34,93,122)" stroke-width="1" opacity="0.12549019607843137" d="M 914.5 160 L 959 179.5 L 957.5 180 L 930.5 169 L 914.5 161 L 914.5 160 Z " /><path fill="rgb(34,93,122)" stroke="rgb(34,93,122)" stroke-width="1" opacity="0.12549019607843137" d="M 880.5 169 L 882 175.5 L 881 175.5 L 880.5 169 Z " /><path fill="rgb(34,93,122)" stroke="rgb(34,93,122)" stroke-width="1" opacity="0.12549019607843137" d="M 851.5 176 L 852 181.5 L 851 181.5 L 851.5 176 Z " /><path fill="rgb(34,93,122)" stroke="rgb(34,93,122)" stroke-width="1" opacity="0.12549019607843137" d="M 615.5 177 L 616 181.5 L 615 181.5 L 615.5 177 Z " /><path fill="rgb(34,93,122)" stroke="rgb(34,93,122)" stroke-width="1" opacity="0.12549019607843137" d="M 882.5 177 L 891 197.5 L 894 208.5 L 895 213.5 L 895 235.5 Q 891.6 252.6 880.5 262 L 866.5 271 L 854.5 275 L 854.5 274 Q 874.2 269.2 885 255.5 Q 891.7 247.2 894 234.5 L 894 214.5 L 891 201.5 L 884 184.5 L 882.5 177 Z " /><path fill="rgb(34,93,122)" stroke="rgb(34,93,122)" stroke-width="1" opacity="0.12549019607843137" d="M 963.5 181 L 971 183.5 L 968.5 184 L 963.5 182 L 963.5 181 Z " /><path fill="rgb(34,93,122)" stroke="rgb(34,93,122)" stroke-width="1" opacity="0.12549019607843137" d="M 614.5 183 L 615 195.5 L 614 195.5 L 614.5 183 Z " /><path fill="rgb(34,93,122)" stroke="rgb(34,93,122)" stroke-width="1" opacity="0.12549019607843137" d="M 850.5 185 L 851 205.5 Q 849.3 215.8 842.5 221 L 824.5 233 L 815 242.5 L 811 249.5 L 807 264.5 L 812.5 271 L 818 273.5 L 816.5 274 L 814.5 273 L 817 276.5 Q 822 281.5 823 290.5 L 822 290.5 Q 819.6 278.4 811.5 272 Q 808.3 267.2 800 267.5 L 804 265.5 Q 807.1 261.6 806.5 254 L 807.5 259 Q 810.4 242.4 821.5 234 L 838.5 223 L 846 215.5 L 850 205.5 L 850.5 185 Z M 806 264 L 804 267 L 806 267 L 807 268 L 806 264 Z " /><path fill="rgb(34,93,122)" stroke="rgb(34,93,122)" stroke-width="1" opacity="0.12549019607843137" d="M 615.5 197 L 616 201.5 L 615 201.5 L 615.5 197 Z " /><path fill="rgb(34,93,122)" stroke="rgb(34,93,122)" stroke-width="1" opacity="0.12549019607843137" d="M 747.5 201 L 753.5 201 L 767.5 205 Q 781.4 211.1 791 221.5 Q 800 230 804 243.5 L 803 243.5 Q 796.4 225.6 782.5 215 Q 772.7 206.7 758.5 203 L 743.5 203 Q 719 209.5 705 226.5 Q 695.5 241.5 682.5 253 L 677.5 256 L 672.5 257 L 665 251.5 Q 661.4 245.1 661 235.5 L 662 235.5 L 665 249.5 L 668.5 254 L 676.5 255 Q 685.5 251 691 243.5 Q 699.8 228.8 712.5 218 Q 725.6 205.1 747.5 201 Z " /><path fill="rgb(34,93,122)" stroke="rgb(34,93,122)" stroke-width="1" opacity="0.12549019607843137" d="M 616.5 203 L 618 209.5 L 617 209.5 L 616.5 203 Z " /><path fill="rgb(34,93,122)" stroke="rgb(34,93,122)" stroke-width="1" opacity="0.12549019607843137" d="M 658.5 213 L 659 220.5 L 658 220.5 L 658.5 213 Z " /><path fill="rgb(34,93,122)" stroke="rgb(34,93,122)" stroke-width="1" opacity="0.12549019607843137" d="M 620.5 217 L 622 220.5 L 621 220.5 L 620.5 217 Z " /><path fill="rgb(34,93,122)" stroke="rgb(34,93,122)" stroke-width="1" opacity="0.12549019607843137" d="M 291.5 220 Q 296 219 297 221.5 L 297 253.5 L 294.5 256 L 289 253.5 L 289 227.5 Q 285.7 228.5 287 222.5 L 291.5 220 Z M 294 222 L 289 223 L 291 227 L 291 253 L 293 254 L 295 253 L 295 224 L 294 222 Z " /><path fill="rgb(34,93,122)" stroke="rgb(34,93,122)" stroke-width="1" opacity="0.12549019607843137" d="M 622.5 222 Q 631.3 244.7 648.5 259 Q 661.9 270.6 684 273.5 L 677.5 274 L 658.5 267 L 642 254.5 Q 628.1 241.4 622.5 222 Z " /><path fill="rgb(34,93,122)" stroke="rgb(34,93,122)" stroke-width="1" opacity="0.12549019607843137" d="M 659.5 222 L 661 233.5 L 660 233.5 L 659.5 222 Z " /><path fill="rgb(34,93,122)" stroke="rgb(34,93,122)" stroke-width="1" opacity="0.12549019607843137" d="M 237.5 223 L 241 224.5 L 240 230.5 L 244 234.5 L 245 246.5 L 246 247.5 Q 243.8 248.7 245 253.5 L 243.5 255 L 234.5 256 L 229.5 255 L 226 252.5 L 226 243.5 L 228 241.5 L 226 236.5 L 227 234.5 Q 224.8 233.3 227.5 232 Q 232 233 233 230.5 L 235 224 L 237.5 223 Z M 236 226 L 235 230 L 239 229 Q 240 224 236 226 Z M 229 233 L 229 239 Q 232 240 231 238 Q 232 235 238 236 Q 240 237 239 241 Q 232 240 230 243 L 228 244 L 228 251 L 233 254 L 235 254 L 243 253 L 243 238 L 242 236 L 240 233 L 229 233 Z M 235 238 L 235 239 L 237 239 L 235 238 Z " /><path fill="rgb(34,93,122)" stroke="rgb(34,93,122)" stroke-width="1" opacity="0.12549019607843137" d="M 90.5 224 Q 98.8 222.8 102 226.5 Q 102.7 232.6 101 235 Q 96.3 236 95 232.5 L 95 231 L 90 231 L 89 233.5 L 99.5 238 L 104 242.5 Q 106 252 100.5 254 L 93.5 256 Q 91.8 253.3 85.5 255 L 82 252.5 L 82 247 L 88.5 247 L 95 249 L 96 245 L 86.5 242 L 83 238.5 L 82 229.5 L 86.5 225 L 90.5 224 Z M 92 226 L 88 227 L 84 231 L 85 238 Q 88 242 96 242 L 98 245 Q 99 249 97 250 L 88 250 L 87 249 Q 83 248 84 252 Q 85 254 89 253 L 92 254 L 99 253 Q 103 251 102 244 L 99 240 L 90 237 Q 87 236 88 232 Q 90 228 96 229 L 97 233 L 100 233 L 100 227 L 92 226 Z " /><path fill="rgb(34,93,122)" stroke="rgb(34,93,122)" stroke-width="1" opacity="0.12549019607843137" d="M 404.5 224 Q 407.7 226.3 414.5 225 L 416 226.5 L 416 231 L 402 231 L 402 236 L 409.5 236 L 411 237.5 Q 412 242 409.5 243 L 402 243 L 402 248 L 406.5 249 Q 408 246.5 413.5 248 L 416 249 Q 417.3 253.6 414.5 255 L 400.5 255 L 395 250.5 L 394 233.5 L 397.5 226 L 404.5 224 Z M 400 227 L 397 230 Q 398 234 396 236 L 396 244 L 398 252 L 403 254 L 414 254 L 414 250 L 403 250 Q 399 248 400 243 L 402 241 L 409 241 L 409 238 L 400 238 L 401 230 L 405 229 L 414 230 L 414 227 L 400 227 Z " /><path fill="rgb(34,93,122)" stroke="rgb(34,93,122)" stroke-width="1" opacity="0.12549019607843137" d="M 537.5 224 L 543 227.5 L 541 231.5 L 542 232.5 L 542 252.5 L 543 253.5 L 541.5 255 L 534 255 Q 536.2 249.8 535 239.5 L 534 236.5 L 535 234.5 L 535 230.5 L 534 227.5 L 535 225 L 537.5 224 Z M 537 226 L 537 228 Q 535 229 538 230 Q 541 231 540 228 L 537 226 Z M 537 233 L 537 251 L 537 253 Q 536 255 540 254 L 540 234 L 537 233 Z " /><path fill="rgb(34,93,122)" stroke="rgb(34,93,122)" stroke-width="1" opacity="0.12549019607843137" d="M 150.5 225 Q 154.5 224.5 155 227.5 Q 153.5 231.9 156.5 231 L 158.5 231 L 162 232 Q 163.3 236.6 160.5 238 Q 155.3 236.8 154 239.5 L 155 248 L 163 248 L 163 251.5 L 164 253.5 L 162.5 255 L 151.5 255 L 149 254 Q 145.6 248.5 147 238 Q 144.3 239.1 145 236.5 L 143 235.5 Q 144 240.5 141 241.5 L 143 242 Q 144.7 244.4 144 250.5 L 141.5 254 L 132.5 256 L 126 253.5 Q 125 249 127.5 248 L 134.5 249 L 135.5 247 Q 129.3 247.7 128 243.5 L 127 234.5 Q 130.2 230.7 137.5 231 L 143.5 233 L 147 232 Q 145.8 227.4 148.5 226 L 150.5 225 Z M 152 227 L 151 228 L 149 228 L 149 233 L 146 233 Q 144 237 148 236 L 149 238 L 149 250 L 150 252 L 156 254 Q 161 255 162 253 L 162 250 L 153 250 L 153 246 L 152 243 L 153 241 L 152 238 L 154 236 L 160 236 L 160 233 L 154 233 Q 151 232 153 231 L 152 227 Z M 133 233 L 128 237 L 129 243 L 138 247 L 138 250 L 128 250 L 127 253 L 132 254 L 140 253 Q 143 252 142 246 Q 140 242 135 242 Q 131 241 132 238 Q 133 235 138 236 L 139 239 Q 144 241 142 235 L 141 233 L 133 233 Z M 135 238 L 136 240 L 138 240 L 135 238 Z " /><path fill="rgb(34,93,122)" stroke="rgb(34,93,122)" stroke-width="1" opacity="0.12549019607843137" d="M 210.5 226 Q 215 225 216 227.5 Q 215.3 231.3 217.5 232 L 220.5 231 L 223 232 L 224 234.5 L 223 238 L 216 238 L 216 247.5 Q 217.3 250.3 218.5 248 Q 223.8 246.8 225 249.5 Q 226 254 223.5 255 L 220.5 256 L 218.5 256 L 212.5 255 L 210 252.5 Q 206.6 247.3 208 238 L 205.5 237 L 205 245.5 Q 207.2 246.8 206 251.5 L 205 255 Q 199.6 256.5 198 253.5 L 198 239.5 L 196.5 238 L 194 239.5 L 194 253.5 L 193 256 Q 188 256.8 186 253.5 L 186 233.5 L 187.5 232 L 199.5 231 L 204.5 234 L 210.5 226 Z M 212 228 L 210 230 Q 212 235 207 233 Q 206 238 210 236 L 211 251 Q 213 255 222 254 L 223 250 L 216 250 L 214 249 L 214 236 L 222 236 L 222 233 L 214 233 L 214 228 L 212 228 Z M 188 233 L 188 254 L 191 254 L 192 253 L 192 239 L 198 236 L 200 240 L 200 254 L 204 253 L 204 238 L 201 233 Q 196 232 195 234 L 188 233 Z " /><path fill="rgb(34,93,122)" stroke="rgb(34,93,122)" stroke-width="1" opacity="0.12549019607843137" d="M 107.5 231 L 112 232 Q 110.4 242.5 113.5 249 L 117 246.5 L 116 245.5 L 116 235.5 L 117.5 232 L 122.5 231 L 125 234.5 Q 122.8 235.8 124 240.5 L 125 242.5 L 125 244.5 L 124 253.5 L 122.5 255 L 113.5 256 L 109.5 255 L 106 251.5 L 105 249.5 L 105 232 L 107.5 231 Z M 107 233 L 107 235 L 107 245 L 106 246 L 108 252 L 112 254 L 122 253 L 123 249 L 122 246 L 122 233 L 119 234 L 119 250 Q 113 252 111 249 L 111 234 Q 111 233 107 233 Z " /><path fill="rgb(34,93,122)" stroke="rgb(34,93,122)" stroke-width="1" opacity="0.12549019607843137" d="M 171.5 231 L 175.5 232 L 177.5 232 Q 182.3 231.3 183 234.5 L 184 245.5 Q 182.8 248.3 181.5 246 L 173.5 246 L 173 247.5 Q 174 250 178.5 249 L 183 248 L 183 255 L 177.5 255 L 172.5 256 L 166 251.5 Q 163.5 246 165 236.5 L 166 233 L 171.5 231 Z M 171 233 L 168 234 L 166 240 L 167 250 L 173 254 L 182 253 L 182 250 L 173 250 L 170 246 L 172 244 L 183 244 L 182 236 Q 179 231 171 233 Z " /><path fill="rgb(34,93,122)" stroke="rgb(34,93,122)" stroke-width="1" opacity="0.12549019607843137" d="M 275.5 231 L 283.5 232 L 287 235.5 L 288 242.5 L 287 246 L 275.5 246 L 275 247.5 L 276.5 249 L 279.5 248 L 282.5 249 L 285.5 248 L 287 251.5 L 284.5 255 L 278.5 256 L 271.5 254 L 268 250.5 L 267.5 235 L 263 247.5 L 263 251.5 L 259.5 255 L 256.5 256 L 250 251.5 L 245 233.5 Q 246.3 230.8 251.5 232 L 254 235.5 L 255 243.5 L 256.5 246 L 260 232 Q 266.1 230.3 268 233.5 L 268.5 235 L 269 233 L 275.5 231 Z M 247 233 L 252 252 Q 253 255 259 254 L 262 248 Q 262 239 266 234 L 262 233 L 258 249 L 257 250 L 255 249 L 251 235 L 251 233 L 247 233 Z M 274 233 L 272 234 L 270 236 L 270 246 L 269 247 L 271 252 L 277 254 Q 283 255 285 252 L 285 250 L 276 250 L 273 246 L 275 244 L 285 244 Q 286 237 284 234 Q 281 232 274 233 Z " /><path fill="rgb(34,93,122)" stroke="rgb(34,93,122)" stroke-width="1" opacity="0.12549019607843137" d="M 316.5 231 Q 323.8 230.2 327 233.5 Q 328.5 240.5 325.5 240 L 322.5 241 L 318.5 238 Q 315.5 239.5 317 245.5 L 318 248 L 320.5 249 L 327 248 Q 328.5 253.4 325.5 255 L 318.5 256 L 314.5 255 L 311 251.5 L 310 249.5 L 310 236.5 L 313.5 232 L 316.5 231 Z M 316 233 L 311 240 L 312 251 L 318 254 L 320 253 L 323 254 L 325 253 L 326 251 L 316 250 L 315 248 Q 314 240 318 236 Q 323 235 324 239 Q 327 240 325 235 L 324 233 L 316 233 Z " /><path fill="rgb(34,93,122)" stroke="rgb(34,93,122)" stroke-width="1" opacity="0.12549019607843137" d="M 335.5 231 L 340.5 232 L 342.5 232 Q 346.5 231.5 347 234.5 Q 349.5 240 348 249.5 L 345.5 254 Q 341.7 256.7 333.5 255 L 330 252.5 Q 327.5 247 329 237.5 L 332.5 232 L 335.5 231 Z M 335 233 L 330 240 L 331 251 L 337 254 L 344 253 L 347 248 L 346 237 Q 344 231 335 233 Z " /><path fill="rgb(34,93,122)" stroke="rgb(34,93,122)" stroke-width="1" opacity="0.12549019607843137" d="M 360.5 231 L 367.5 233 Q 370.2 230.2 376.5 231 L 381 234.5 L 382 236.5 L 382 253.5 Q 380.8 256.3 375.5 255 L 374 253.5 L 374 238 L 370 239 L 370 253.5 L 368.5 255 L 363 255 L 363 239.5 L 360.5 238 L 358 240.5 L 358 254.5 L 356.5 256 L 350 253.5 L 351 250.5 L 351 237.5 L 350 236.5 L 351 234.5 Q 348.7 233.3 351.5 232 L 359.5 232 L 360.5 231 Z M 352 233 L 352 254 L 356 254 L 356 238 L 363 236 L 364 238 L 364 254 L 367 253 L 368 253 L 368 238 L 375 236 L 376 238 L 376 254 L 380 253 L 380 238 L 379 234 L 377 233 Q 371 232 369 235 L 365 233 Q 360 232 359 234 L 352 233 Z " /><path fill="rgb(34,93,122)" stroke="rgb(34,93,122)" stroke-width="1" opacity="0.12549019607843137" d="M 423.5 231 L 434 232 L 435 239.5 Q 434 242 429.5 241 L 428 238 L 425 238.5 L 425 247.5 Q 425.8 249.8 429.5 249 L 433.5 248 L 436 251.5 L 433.5 255 L 422.5 255 L 419 252.5 L 417 243.5 Q 419.7 241.8 418 235.5 L 421.5 232 L 423.5 231 Z M 423 233 L 419 238 L 419 249 L 420 251 L 424 253 L 427 254 L 433 253 L 433 250 L 424 250 L 423 248 L 423 239 L 424 238 Q 423 234 429 236 L 430 239 Q 435 241 433 235 L 432 233 L 423 233 Z " /><path fill="rgb(34,93,122)" stroke="rgb(34,93,122)" stroke-width="1" opacity="0.12549019607843137" d="M 443.5 231 Q 452.2 229.8 455 234.5 Q 457.4 239.6 456 248.5 L 455 253 L 448.5 256 L 444.5 256 L 439 254 L 436 245.5 L 436 243.5 L 437 235.5 L 440.5 232 L 443.5 231 Z M 443 233 L 441 234 L 438 238 L 438 250 L 439 252 L 444 254 L 450 254 L 453 252 L 454 250 L 454 238 L 453 236 Q 451 231 443 233 Z " /><path fill="rgb(34,93,122)" stroke="rgb(34,93,122)" stroke-width="1" opacity="0.12549019607843137" d="M 467.5 231 L 476 233 L 477 235.5 L 477 255 L 470 255 L 470 238.5 L 467.5 238 L 466 239.5 L 466 253.5 L 464.5 255 Q 459.3 256.3 458 253.5 L 458 233.5 L 459.5 232 Q 465.8 233.8 467.5 231 Z M 460 233 L 461 254 L 463 253 L 463 244 L 464 243 L 463 240 L 468 236 Q 472 236 472 239 L 471 242 L 472 245 Q 474 250 471 252 L 473 254 L 476 253 Q 478 239 473 233 Q 468 232 467 234 L 460 233 Z " /><path fill="rgb(34,93,122)" stroke="rgb(34,93,122)" stroke-width="1" opacity="0.12549019607843137" d="M 486.5 231 L 489.5 232 L 491.5 232 Q 496.6 231.4 498 234.5 L 500 244.5 Q 497.8 245.7 499 250.5 L 496.5 254 L 487.5 256 L 481 254 L 480 251.5 L 479 240.5 L 480 235.5 L 483.5 232 L 486.5 231 Z M 486 233 L 483 234 L 481 239 L 482 251 L 487 254 L 495 253 L 497 250 L 497 237 Q 495 231 486 233 Z " /><path fill="rgb(34,93,122)" stroke="rgb(34,93,122)" stroke-width="1" opacity="0.12549019607843137" d="M 512.5 231 L 519.5 233 L 525.5 231 L 531 233.5 L 532 235.5 L 532 255 L 529.5 256 L 525 255 L 525.5 249 L 527.5 254 L 531 252.5 L 531 237.5 L 527.5 233 L 522.5 233 L 517.5 235 Q 516.3 231.7 510.5 233 L 507.5 234 L 505.5 233 L 503 233.5 L 503 252.5 L 504.5 254 L 508 252.5 L 507 251.5 L 507 238.5 Q 509 235.2 514 236 L 515 238.5 L 515 252.5 L 516.5 254 L 518 252.5 L 518 240.5 L 520.5 237 L 524.5 236 L 527 240 Q 524 241 525 238 L 522.5 238 L 520 244.5 L 521 245.5 L 521 253.5 Q 519.8 256.3 514.5 255 L 513 253.5 L 513 238 L 509 239 L 508 241.5 L 509 242.5 L 509 253.5 Q 507.8 256.3 502.5 255 L 501 253.5 L 501 233 L 512.5 231 Z " /><path fill="rgb(34,93,122)" stroke="rgb(34,93,122)" stroke-width="1" opacity="0.12549019607843137" d="M 550.5 231 Q 560.1 229.9 563 235.5 L 564 239.5 L 563 242.5 L 563 244.5 L 563 253.5 L 561.5 255 L 552.5 256 L 545 252.5 L 545.5 250 L 551.5 254 L 553.5 254 L 561 253 L 561 236.5 L 557.5 233 L 548.5 233 L 546 235.5 L 547.5 239 L 550 237.5 Q 549.4 234.8 555.5 236 L 558 239.5 Q 556.5 242.5 550.5 241 L 546 244.5 L 544.5 249 L 544 245.5 L 546 239.5 L 545 234.5 L 546 232 L 550.5 231 Z M 552 238 L 552 239 L 555 239 L 552 238 Z " /><path fill="rgb(34,93,122)" stroke="rgb(34,93,122)" stroke-width="1" opacity="0.12549019607843137" d="M 172.5 236 L 179 237 L 177.5 241 Q 171.5 242.5 170 239.5 L 172.5 236 Z " /><path fill="rgb(34,93,122)" stroke="rgb(34,93,122)" stroke-width="1" opacity="0.12549019607843137" d="M 275.5 236 Q 281 235 282 238.5 L 281.5 241 L 274.5 241 L 273 238.5 L 275.5 236 Z M 276 238 L 276 239 L 279 239 L 276 238 Z " /><path fill="rgb(34,93,122)" stroke="rgb(34,93,122)" stroke-width="1" opacity="0.12549019607843137" d="M 336.5 236 Q 342 235 343 238.5 Q 344.1 246.7 342 250 L 335.5 250 L 334 248.5 L 334 238.5 L 336.5 236 Z M 338 238 L 336 240 L 336 248 L 340 249 Q 342 246 341 240 L 338 238 Z " /><path fill="rgb(34,93,122)" stroke="rgb(34,93,122)" stroke-width="1" opacity="0.12549019607843137" d="M 443.5 236 Q 448.8 234.8 450 237.5 L 451 246.5 L 450 250 L 443.5 250 L 442 248.5 L 442 237.5 L 443.5 236 Z M 444 238 L 444 240 L 444 242 L 443 246 L 444 248 L 448 249 L 448 238 L 444 238 Z " /><path fill="rgb(34,93,122)" stroke="rgb(34,93,122)" stroke-width="1" opacity="0.12549019607843137" d="M 487.5 236 Q 492 235 493 237.5 L 493 250 L 486.5 250 L 485 248.5 L 485 237 L 487.5 236 Z M 487 238 L 487 248 L 491 249 L 492 248 L 492 240 Q 491 237 487 238 Z " /><path fill="rgb(34,93,122)" stroke="rgb(34,93,122)" stroke-width="1" opacity="0.12549019607843137" d="M 525 241 L 527 241 L 527 247 L 525 247 L 525 241 Z " /><path fill="rgb(34,93,122)" stroke="rgb(34,93,122)" stroke-width="1" opacity="0.12549019607843137" d="M 233.5 244 L 239 244 L 239 250 L 232.5 250 L 231 248.5 Q 230.5 244.5 233.5 244 Z M 234 246 L 234 248 L 238 249 Q 240 244 234 246 Z " /><path fill="rgb(34,93,122)" stroke="rgb(34,93,122)" stroke-width="1" opacity="0.12549019607843137" d="M 551.5 244 Q 556.8 242.8 558 245.5 L 558 250 L 550 250 Q 548.8 245.4 551.5 244 Z M 553 246 L 551 248 L 551 249 L 556 249 Q 558 245 553 246 Z " /><path fill="rgb(34,93,122)" stroke="rgb(34,93,122)" stroke-width="1" opacity="0.12549019607843137" d="M 804.5 245 L 805 247.5 L 804 247.5 L 804.5 245 Z " /><path fill="rgb(34,93,122)" stroke="rgb(34,93,122)" stroke-width="1" opacity="0.12549019607843137" d="M 805.5 249 L 806 251.5 L 805 251.5 L 805.5 249 Z " /><path fill="rgb(34,93,122)" stroke="rgb(34,93,122)" stroke-width="1" opacity="0.12549019607843137" d="M 737.5 256 L 743 256.5 L 737.5 257 L 737.5 256 Z " /><path fill="rgb(34,93,122)" stroke="rgb(34,93,122)" stroke-width="1" opacity="0.12549019607843137" d="M 732.5 257 L 736 257.5 L 729.5 259 L 713.5 268 L 713.5 267 Q 721.3 260.3 732.5 257 Z " /><path fill="rgb(34,93,122)" stroke="rgb(34,93,122)" stroke-width="1" opacity="0.12549019607843137" d="M 744.5 257 L 755.5 260 L 770 267.5 L 768.5 268 L 750.5 259 L 744.5 258 L 744.5 257 Z " /><path fill="rgb(34,93,122)" stroke="rgb(34,93,122)" stroke-width="1" opacity="0.12549019607843137" d="M 711.5 268 L 710.5 270 L 700.5 273 L 700.5 272 L 711.5 268 Z " /><path fill="rgb(34,93,122)" stroke="rgb(34,93,122)" stroke-width="1" opacity="0.12549019607843137" d="M 797.5 268 L 799 268.5 L 789 275 Q 778.3 287.6 773 306.5 L 772 328.5 Q 775.5 347 787.5 357 Q 796.4 364.6 808.5 369 L 827.5 374 L 833.5 374 L 849.5 377 L 860.5 382 L 863 384.5 L 864 391.5 L 862 395.5 L 850.5 407 L 841.5 414 L 846.5 408 L 861 395.5 L 863 387.5 L 858.5 382 L 849.5 378 L 821.5 374 L 803.5 368 Q 789.2 361.8 780 350.5 L 772 334.5 L 771 329.5 L 771 312.5 Q 775.9 285.9 792.5 271 L 794 270.5 L 792 269.5 L 797.5 268 Z " /><path fill="rgb(34,93,122)" stroke="rgb(34,93,122)" stroke-width="1" opacity="0.12549019607843137" d="M 774.5 269 L 778 269.5 L 774.5 270 L 774.5 269 Z " /><path fill="rgb(34,93,122)" stroke="rgb(34,93,122)" stroke-width="1" opacity="0.12549019607843137" d="M 780.5 270 L 790 270.5 L 780.5 271 L 780.5 270 Z " /><path fill="rgb(34,93,122)" stroke="rgb(34,93,122)" stroke-width="1" opacity="0.12549019607843137" d="M 759.5 272 L 769.5 272 L 778.5 274 L 780 275.5 L 778 284.5 L 762 305 L 760.5 305 L 729 334.5 Q 720 343.3 717 357 L 738.5 353 L 761.5 353 L 774.5 356 L 785 362.5 L 791 372.5 L 794 385.5 L 794 449 Q 796.7 450.1 796 447.5 L 807.5 437 L 839.5 414 L 837.5 417 Q 813.6 431.6 794.5 451 L 792 451 L 792 385.5 L 789 372.5 Q 786.8 365.8 781.5 362 L 772.5 357 L 762.5 355 L 736.5 355 L 718 359 L 718 384.5 L 719.5 386 L 733.5 386 L 734 384.5 L 736 374.5 L 737.5 373 L 756.5 372 L 767 375 L 770 381.5 L 771 395 L 764.5 395 L 763.5 394 L 743.5 394 L 730.5 397 Q 722.4 399.9 718 406.5 L 713 416.5 L 712 429.5 Q 714.5 431 713 436.5 L 717 445.5 L 723.5 452 L 738.5 457 L 761.5 458 L 762.5 457 L 771.5 457 L 790 454 L 783.5 465 L 783 463.5 L 788 456.5 L 784.5 456 L 771.5 459 L 746.5 460 L 730.5 457 Q 721.8 453.8 716 447.5 L 711 431.5 L 711 429.5 L 712 415.5 L 714 409.5 L 722.5 399 L 738.5 393 L 757.5 392 L 769 394 Q 770.9 382.3 765.5 377 Q 756.1 371.9 739.5 374 L 738 375.5 L 737 383.5 L 734.5 388 L 718.5 388 L 717 386.5 L 716 383.5 L 717 378.5 L 716 374.5 L 716 372.5 L 717 370.5 L 710 354.5 L 708 334.5 L 714 311.5 Q 719.7 297.7 729.5 288 L 732 286.5 L 734.5 283 Q 744 274.5 759.5 272 Z M 763 274 L 752 276 L 737 284 Q 716 301 710 334 L 711 352 L 715 360 L 716 351 L 725 336 Q 741 318 759 305 L 775 286 Q 778 282 777 276 L 769 274 L 763 274 Z " /><path fill="rgb(34,93,122)" stroke="rgb(34,93,122)" stroke-width="1" opacity="0.12549019607843137" d="M 692.5 273 L 699 273.5 L 692.5 274 L 692.5 273 Z " /><path fill="rgb(34,93,122)" stroke="rgb(34,93,122)" stroke-width="1" opacity="0.12549019607843137" d="M 686.5 274 L 690 274.5 L 686.5 275 L 686.5 274 Z " /><path fill="rgb(34,93,122)" stroke="rgb(34,93,122)" stroke-width="1" opacity="0.12549019607843137" d="M 822.5 275 L 825 275.5 L 822.5 276 L 822.5 275 Z " /><path fill="rgb(34,93,122)" stroke="rgb(34,93,122)" stroke-width="1" opacity="0.12549019607843137" d="M 849.5 275 L 853 275.5 Q 847.4 278.4 837.5 277 L 837.5 276 L 848.5 276 L 849.5 275 Z " /><path fill="rgb(34,93,122)" stroke="rgb(34,93,122)" stroke-width="1" opacity="0.12549019607843137" d="M 826.5 276 L 832 276.5 L 826.5 277 L 826.5 276 Z " /><path fill="rgb(34,93,122)" stroke="rgb(34,93,122)" stroke-width="1" opacity="0.12549019607843137" d="M 830.5 282 L 849.5 282 L 879.5 290 L 897.5 297 L 911.5 300 L 921.5 300 Q 933.1 298.1 938 289.5 L 939 285 Q 942.3 283.7 941 288.5 L 937 297.5 L 924.5 310 Q 915.3 317.8 901.5 321 L 889.5 322 L 888.5 323 L 871.5 323 L 860.5 321 L 846.5 315 L 833 301.5 L 828 291.5 L 827 284.5 L 830.5 282 Z M 836 283 L 829 286 Q 831 297 837 304 L 852 315 L 863 319 L 874 321 L 887 321 L 888 320 L 901 319 Q 918 314 929 303 Q 931 304 930 302 L 932 299 L 920 302 L 906 301 Q 903 298 897 299 L 851 284 L 836 283 Z " /><path fill="rgb(34,93,122)" stroke="rgb(34,93,122)" stroke-width="1" opacity="0.12549019607843137" d="M 823.5 292 L 824 294.5 L 823 294.5 L 823.5 292 Z " /><path fill="rgb(34,93,122)" stroke="rgb(34,93,122)" stroke-width="1" opacity="0.12549019607843137" d="M 824.5 297 L 825 302.5 L 824 302.5 L 824.5 297 Z " /><path fill="rgb(34,93,122)" stroke="rgb(34,93,122)" stroke-width="1" opacity="0.12549019607843137" d="M 401.5 302 Q 407.5 300.5 409 303.5 L 408 307.5 L 409 310.5 L 408 311.5 L 408 361 L 424.5 354 L 443.5 353 Q 455.8 355.7 462 364.5 L 465 372.5 L 466 385.5 L 467 386.5 L 467 416.5 L 466 417.5 L 466 425.5 L 464 435.5 L 458 449 Q 455.3 447.9 456 450.5 L 451.5 454 L 441.5 458 L 429.5 459 L 428.5 460 L 415.5 460 L 414.5 459 L 391.5 457 L 385 455 L 384 452.5 L 384 323 L 376.5 323 L 375 321.5 L 374 319.5 L 374 308.5 L 376.5 306 L 380.5 305 L 385.5 305 L 392.5 303 L 400.5 303 L 401.5 302 Z M 396 304 L 378 308 L 376 311 L 376 313 L 377 316 L 377 321 L 384 321 L 385 323 L 386 453 L 391 455 L 405 456 L 406 457 L 416 457 L 417 458 L 437 457 L 448 454 L 453 451 Q 459 447 461 439 L 465 417 L 465 387 L 464 386 L 463 373 L 460 365 L 453 358 L 444 355 L 425 356 L 408 363 L 406 362 L 406 336 L 406 334 L 406 312 L 407 311 L 407 304 L 396 304 Z " /><path fill="rgb(34,93,122)" stroke="rgb(34,93,122)" stroke-width="1" opacity="0.12549019607843137" d="M 825.5 306 L 826 314.5 L 825 314.5 L 825.5 306 Z " /><path fill="rgb(34,93,122)" stroke="rgb(34,93,122)" stroke-width="1" opacity="0.12549019607843137" d="M 826.5 317 L 827 319.5 L 826 319.5 L 826.5 317 Z " /><path fill="rgb(34,93,122)" stroke="rgb(34,93,122)" stroke-width="1" opacity="0.12549019607843137" d="M 579.5 320 Q 590.9 318.1 595 323.5 Q 598.3 326.7 598 333.5 L 596 340.5 L 592.5 344 Q 588.5 347 580.5 346 L 572 340.5 Q 569.8 335.7 571 327.5 L 576.5 321 L 579.5 320 Z M 582 321 L 575 324 L 573 329 Q 572 336 574 340 L 580 344 Q 589 345 593 342 L 595 338 Q 597 329 594 326 L 587 321 L 585 322 L 582 321 Z " /><path fill="rgb(34,93,122)" stroke="rgb(34,93,122)" stroke-width="1" opacity="0.12549019607843137" d="M 827.5 321 Q 831.4 332.6 841 338.5 L 838.5 337 L 831 330.5 L 827 323.5 L 827.5 321 Z " /><path fill="rgb(34,93,122)" stroke="rgb(34,93,122)" stroke-width="1" opacity="0.12549019607843137" d="M 842.5 339 Q 858.5 345 868 357.5 L 875 369.5 L 877 376.5 L 877 381.5 L 876 381.5 L 876 377.5 L 872 365.5 L 859.5 350 L 843.5 341 L 842.5 339 Z " /><path fill="rgb(34,93,122)" stroke="rgb(34,93,122)" stroke-width="1" opacity="0.12549019607843137" d="M 67.5 352 L 66.5 354 L 59.5 354 L 41 360 L 40.5 356 L 28 356 L 27 358.5 L 26.5 451 L 26 357.5 L 27 355 L 40.5 355 L 42 356.5 Q 40.9 359.8 43.5 359 L 55.5 354 L 66.5 353 L 67.5 352 Z " /><path fill="rgb(34,93,122)" stroke="rgb(34,93,122)" stroke-width="1" opacity="0.12549019607843137" d="M 128.5 352 L 136.5 352 L 147 354.5 L 144.5 355 L 136.5 353 L 128.5 353 Q 127 355.5 121.5 354 L 110.5 358 L 110.5 357 L 117.5 354 L 128.5 352 Z " /><path fill="rgb(34,93,122)" stroke="rgb(34,93,122)" stroke-width="1" opacity="0.12549019607843137" d="M 75.5 353 L 81.5 353 L 91 357.5 L 89.5 357 L 80.5 354 L 75.5 354 L 75.5 353 Z " /><path fill="rgb(34,93,122)" stroke="rgb(34,93,122)" stroke-width="1" opacity="0.12549019607843137" d="M 215.5 353 L 243.5 353 L 251.5 355 L 255 357.5 L 253.5 357 L 243.5 354 L 215.5 354 Q 214.3 356.3 209.5 355 L 202 358.5 L 201.5 375 L 201 357 L 215.5 353 Z " /><path fill="rgb(34,93,122)" stroke="rgb(34,93,122)" stroke-width="1" opacity="0.12549019607843137" d="M 324.5 353 L 345 353.5 L 324.5 354 L 324.5 353 Z " /><path fill="rgb(34,93,122)" stroke="rgb(34,93,122)" stroke-width="1" opacity="0.12549019607843137" d="M 528.5 353 L 543.5 353 L 555 356 L 555 386.5 L 553.5 388 L 538.5 388 L 537 386.5 L 537 381.5 L 535 374 L 531.5 375 L 529.5 375 Q 520.5 376 517 382.5 L 512 392.5 L 512 457.5 L 510.5 459 L 493.5 459 L 488 458 L 488 356.5 L 489.5 355 L 504.5 355 L 505.5 356 L 512 356 Q 510.3 360.1 514.5 359 L 518.5 356 L 528.5 353 Z M 529 355 L 521 357 L 513 362 Q 510 363 511 359 L 510 357 L 490 357 L 490 456 L 492 457 L 510 457 L 511 456 L 511 395 L 510 394 Q 512 384 518 379 L 524 374 L 537 372 L 539 386 L 553 386 L 553 357 L 545 355 L 529 355 Z " /><path fill="rgb(34,93,122)" stroke="rgb(34,93,122)" stroke-width="1" opacity="0.12549019607843137" d="M 649.5 353 L 674.5 354 L 687.5 357 L 690 359.5 L 690 388 L 672.5 388 L 671 386.5 L 670 378.5 L 667.5 374 L 648.5 375 L 644.5 376 L 641 379.5 Q 639.6 388.9 644.5 392 L 656.5 397 L 664.5 398 L 678.5 403 L 688 410.5 Q 694.9 417.6 693 433.5 L 692 438.5 L 685.5 449 L 670.5 457 L 655.5 460 L 641.5 460 L 615 455 L 614 450.5 L 614 448.5 L 614 436.5 L 616.5 434 L 622.5 436 L 637.5 437 L 638.5 438 L 660.5 438 L 667 433.5 L 668 425.5 L 665.5 422 L 658.5 419 L 654.5 419 L 638.5 414 Q 628.8 410.7 623 403.5 L 617 393.5 L 617 385.5 L 616 384.5 L 617 383.5 L 618 372.5 Q 620.3 365.8 625.5 362 L 634.5 357 L 649.5 353 Z M 649 355 L 637 358 L 628 363 Q 621 367 619 377 L 619 379 L 618 381 Q 617 393 622 400 L 629 406 L 644 414 L 667 420 L 670 425 Q 672 433 668 436 L 666 438 L 660 440 L 638 440 L 637 439 L 623 438 L 618 436 L 616 438 L 616 453 L 622 455 L 641 457 L 642 458 L 663 457 L 676 453 L 683 449 Q 688 443 691 435 Q 693 420 687 413 Q 683 407 676 404 L 645 394 Q 640 392 640 387 L 639 384 L 642 376 L 647 373 Q 652 375 654 372 L 670 373 L 671 375 L 673 386 L 688 386 L 688 361 L 685 358 L 676 356 L 649 355 Z " /><path fill="rgb(34,93,122)" stroke="rgb(34,93,122)" stroke-width="1" opacity="0.12549019607843137" d="M 317.5 354 L 323 354.5 Q 309.5 355.5 303 363.5 L 299 370.5 L 295 387.5 L 295 424.5 L 299 443.5 L 307.5 454 L 312 456.5 L 310.5 457 L 300 447.5 L 295 433.5 L 293 401.5 L 294 398.5 Q 292.2 370.7 306.5 359 L 317.5 354 Z " /><path fill="rgb(34,93,122)" stroke="rgb(34,93,122)" stroke-width="1" opacity="0.12549019607843137" d="M 346.5 354 L 352.5 354 L 363 357.5 L 360.5 358 L 352.5 355 L 346.5 355 L 346.5 354 Z " /><path fill="rgb(34,93,122)" stroke="rgb(34,93,122)" stroke-width="1" opacity="0.12549019607843137" d="M 148.5 355 Q 157.8 356.8 162 363.5 L 164 370.5 L 163 370.5 Q 161.4 361.6 154.5 358 L 148.5 356 L 148.5 355 Z " /><path fill="rgb(34,93,122)" stroke="rgb(34,93,122)" stroke-width="1" opacity="0.12549019607843137" d="M 572 355 L 595.5 355 L 597 356.5 L 597 457.5 L 595.5 459 L 579.5 459 L 578.5 458 L 574.5 459 L 571 456.5 L 572 447.5 L 571 443.5 Q 573.3 442.3 572 437.5 Q 569.5 436 571 430.5 L 572 425.5 L 572 423.5 L 572 390.5 L 571 388.5 L 572 387.5 L 572 363.5 L 572 361.5 L 572 355 Z M 576 356 L 574 358 L 574 456 L 576 457 L 595 457 L 595 457 L 595 357 L 577 357 L 576 356 Z " /><path fill="rgb(34,93,122)" stroke="rgb(34,93,122)" stroke-width="1" opacity="0.12549019607843137" d="M 92.5 358 L 93.5 360 L 92.5 358 Z " /><path fill="rgb(34,93,122)" stroke="rgb(34,93,122)" stroke-width="1" opacity="0.12549019607843137" d="M 107.5 358 L 109 358.5 L 98.5 364 L 95.5 360 L 98.5 363 L 99.5 362 L 107.5 358 Z " /><path fill="rgb(34,93,122)" stroke="rgb(34,93,122)" stroke-width="1" opacity="0.12549019607843137" d="M 256.5 358 L 264 364.5 L 269 374.5 L 270 386.5 L 271 387.5 L 271 454.5 Q 269.3 457.8 263.5 457 L 263.5 456 L 270 455 L 270 388.5 Q 267.3 386.7 269 380.5 L 264 366.5 L 256.5 358 Z " /><path fill="rgb(34,93,122)" stroke="rgb(34,93,122)" stroke-width="1" opacity="0.12549019607843137" d="M 364.5 358 L 371 361.5 L 370.5 364 L 370 361 L 364.5 359 L 364.5 358 Z " /><path fill="rgb(34,93,122)" stroke="rgb(34,93,122)" stroke-width="1" opacity="0.12549019607843137" d="M 132.5 365 L 134 365.5 Q 131 368.5 123.5 367 L 123.5 366 L 131.5 366 L 132.5 365 Z " /><path fill="rgb(34,93,122)" stroke="rgb(34,93,122)" stroke-width="1" opacity="0.12549019607843137" d="M 213.5 365 L 230 365.5 L 214.5 366 L 213 367.5 L 212 376.5 L 208.5 382 Q 203.1 382.6 201 381 L 201.5 376 L 203.5 381 Q 208.8 382.3 210 379.5 L 211 370.5 L 213.5 365 Z " /><path fill="rgb(34,93,122)" stroke="rgb(34,93,122)" stroke-width="1" opacity="0.12549019607843137" d="M 231.5 365 L 245.5 366 L 252 371.5 L 254 376.5 L 253 376.5 Q 251.6 370.4 246.5 368 Q 241.4 364.6 231.5 366 L 231.5 365 Z " /><path fill="rgb(34,93,122)" stroke="rgb(34,93,122)" stroke-width="1" opacity="0.12549019607843137" d="M 333.5 365 L 338 365.5 L 333.5 366 L 333.5 365 Z " /><path fill="rgb(34,93,122)" stroke="rgb(34,93,122)" stroke-width="1" opacity="0.12549019607843137" d="M 60.5 366 L 69 366.5 L 60.5 367 L 60.5 366 Z " /><path fill="rgb(34,93,122)" stroke="rgb(34,93,122)" stroke-width="1" opacity="0.12549019607843137" d="M 74.5 366 L 79 366.5 L 74.5 367 L 74.5 366 Z " /><path fill="rgb(34,93,122)" stroke="rgb(34,93,122)" stroke-width="1" opacity="0.12549019607843137" d="M 135.5 366 L 141.5 366 L 149 371.5 L 152 381.5 L 152 454.5 L 154.5 458 L 158 458.5 L 154.5 459 L 152 458 L 151 455.5 L 151 381.5 L 149 373.5 L 145.5 369 Q 142.5 366 135.5 367 L 135.5 366 Z " /><path fill="rgb(34,93,122)" stroke="rgb(34,93,122)" stroke-width="1" opacity="0.12549019607843137" d="M 324.5 366 L 332 366.5 Q 317.4 366.4 312 375.5 L 310.5 380 L 310 377.5 L 315.5 370 L 324.5 366 Z " /><path fill="rgb(34,93,122)" stroke="rgb(34,93,122)" stroke-width="1" opacity="0.12549019607843137" d="M 341.5 366 L 350 366.5 L 341.5 367 L 341.5 366 Z " /><path fill="rgb(34,93,122)" stroke="rgb(34,93,122)" stroke-width="1" opacity="0.12549019607843137" d="M 56.5 367 L 59 367.5 L 42 375 L 42 457.5 L 40.5 458 L 39 458.5 L 41 456.5 L 41 375.5 L 43.5 373 L 56.5 367 Z " /><path fill="rgb(34,93,122)" stroke="rgb(34,93,122)" stroke-width="1" opacity="0.12549019607843137" d="M 80.5 367 L 86 370.5 L 88 376.5 L 87 376.5 Q 86.6 371 82.5 369 L 80.5 367 Z " /><path fill="rgb(34,93,122)" stroke="rgb(34,93,122)" stroke-width="1" opacity="0.12549019607843137" d="M 119.5 367 L 122 367.5 Q 110.5 370 103 376.5 L 102.5 379 L 102 376.5 L 105.5 373 L 119.5 367 Z " /><path fill="rgb(34,93,122)" stroke="rgb(34,93,122)" stroke-width="1" opacity="0.12549019607843137" d="M 351.5 367 L 357 369.5 L 357 446.5 L 354.5 447 L 354.5 446 L 356 445.5 L 356 370.5 L 351.5 368 L 351.5 367 Z " /><path fill="rgb(34,93,122)" stroke="rgb(34,93,122)" stroke-width="1" opacity="0.12549019607843137" d="M 164.5 373 L 165 377.5 L 164 377.5 L 164.5 373 Z " /><path fill="rgb(34,93,122)" stroke="rgb(34,93,122)" stroke-width="1" opacity="0.12549019607843137" d="M 425.5 373 L 437.5 373 L 441 376.5 L 443 380.5 Q 441.5 388 444 391.5 L 443 395.5 L 444 396.5 L 444 416.5 L 443 417.5 L 443 427.5 L 438.5 436 L 431.5 439 L 414.5 440 L 413.5 439 L 407 439 L 406 436.5 L 406 385.5 Q 412.8 376.3 425.5 373 Z M 432 374 L 417 379 L 408 387 L 408 436 L 411 438 L 413 437 L 432 437 L 439 434 L 441 428 L 441 421 L 441 419 L 442 412 L 442 410 L 442 390 L 441 389 L 440 378 Q 437 374 432 374 Z " /><path fill="rgb(34,93,122)" stroke="rgb(34,93,122)" stroke-width="1" opacity="0.12549019607843137" d="M 88.5 378 L 89 384.5 L 88 384.5 L 88.5 378 Z " /><path fill="rgb(34,93,122)" stroke="rgb(34,93,122)" stroke-width="1" opacity="0.12549019607843137" d="M 254.5 378 L 255 380.5 L 254 380.5 L 254.5 378 Z " /><path fill="rgb(34,93,122)" stroke="rgb(34,93,122)" stroke-width="1" opacity="0.12549019607843137" d="M 103.5 380 L 104 458 L 101 457.5 L 103 457 L 103.5 380 Z " /><path fill="rgb(34,93,122)" stroke="rgb(34,93,122)" stroke-width="1" opacity="0.12549019607843137" d="M 165.5 380 L 166 389.5 L 165 389.5 L 165.5 380 Z " /><path fill="rgb(34,93,122)" stroke="rgb(34,93,122)" stroke-width="1" opacity="0.12549019607843137" d="M 309.5 381 L 310 389.5 L 309 390.5 L 309 424.5 L 310 425.5 L 310 433.5 L 309 433.5 Q 310.5 428 308 426.5 L 308 388.5 L 309.5 381 Z " /><path fill="rgb(34,93,122)" stroke="rgb(34,93,122)" stroke-width="1" opacity="0.12549019607843137" d="M 255.5 382 L 257 396 L 254 395.5 L 256 395 L 255.5 382 Z " /><path fill="rgb(34,93,122)" stroke="rgb(34,93,122)" stroke-width="1" opacity="0.12549019607843137" d="M 877.5 383 L 878 392.5 L 877 392.5 L 877.5 383 Z " /><path fill="rgb(34,93,122)" stroke="rgb(34,93,122)" stroke-width="1" opacity="0.12549019607843137" d="M 89.5 386 L 90 454.5 L 89 454.5 L 89.5 386 Z " /><path fill="rgb(34,93,122)" stroke="rgb(34,93,122)" stroke-width="1" opacity="0.12549019607843137" d="M 222.5 392 L 241 392.5 L 222.5 393 L 222.5 392 Z " /><path fill="rgb(34,93,122)" stroke="rgb(34,93,122)" stroke-width="1" opacity="0.12549019607843137" d="M 216.5 393 L 220 393.5 L 216.5 394 L 216.5 393 Z " /><path fill="rgb(34,93,122)" stroke="rgb(34,93,122)" stroke-width="1" opacity="0.12549019607843137" d="M 243.5 393 L 247 393.5 L 243.5 394 L 243.5 393 Z " /><path fill="rgb(34,93,122)" stroke="rgb(34,93,122)" stroke-width="1" opacity="0.12549019607843137" d="M 212.5 394 L 215 394.5 Q 205.5 397 200 403.5 Q 195.6 408.6 194.5 417 L 194 413.5 Q 197.1 403.6 204.5 398 L 212.5 394 Z " /><path fill="rgb(34,93,122)" stroke="rgb(34,93,122)" stroke-width="1" opacity="0.12549019607843137" d="M 248.5 394 L 253 394.5 L 248.5 395 L 248.5 394 Z " /><path fill="rgb(34,93,122)" stroke="rgb(34,93,122)" stroke-width="1" opacity="0.12549019607843137" d="M 166.5 396 L 167 455.5 L 166 455.5 L 166.5 396 Z " /><path fill="rgb(34,93,122)" stroke="rgb(34,93,122)" stroke-width="1" opacity="0.12549019607843137" d="M 877.5 396 L 878 405.5 L 877 405.5 L 877.5 396 Z " /><path fill="rgb(34,93,122)" stroke="rgb(34,93,122)" stroke-width="1" opacity="0.12549019607843137" d="M 222.5 404 L 229 404.5 Q 218 404.5 213 410.5 Q 207 417.5 209 432.5 L 213 443 L 217 445.5 L 215.5 445 L 211 441.5 Q 206.4 433.6 208 419.5 L 210 412.5 L 214.5 407 L 222.5 404 Z " /><path fill="rgb(34,93,122)" stroke="rgb(34,93,122)" stroke-width="1" opacity="0.12549019607843137" d="M 231.5 404 L 246 404.5 L 231.5 405 L 231.5 404 Z " /><path fill="rgb(34,93,122)" stroke="rgb(34,93,122)" stroke-width="1" opacity="0.12549019607843137" d="M 247.5 405 L 255.5 406 L 257 407.5 L 257 445.5 L 255.5 447 L 244.5 448 L 244.5 447 L 256 446 L 256 408.5 L 254.5 407 L 247.5 406 L 247.5 405 Z " /><path fill="rgb(34,93,122)" stroke="rgb(34,93,122)" stroke-width="1" opacity="0.12549019607843137" d="M 876.5 407 L 877 411.5 Q 867.5 443.5 845.5 463 L 829.5 473 L 818.5 477 L 813.5 477 L 813.5 476 L 818.5 476 L 831.5 471 Q 846 463 856 450.5 L 871 425.5 L 876.5 407 Z " /><path fill="rgb(34,93,122)" stroke="rgb(34,93,122)" stroke-width="1" opacity="0.12549019607843137" d="M 747.5 411 L 749.5 412 Q 751 409.5 756.5 411 L 757.5 412 L 766.5 412 L 772 414.5 L 771 415.5 L 771 439 L 765.5 440 L 742.5 440 L 735 434.5 Q 732.6 429.4 734 420.5 L 739.5 413 L 747.5 411 Z M 742 414 L 740 415 L 736 421 L 736 432 L 737 433 L 737 435 Q 740 434 739 437 L 743 438 L 765 438 L 769 437 L 769 414 L 742 414 Z " /><path fill="rgb(34,93,122)" stroke="rgb(34,93,122)" stroke-width="1" opacity="0.12549019607843137" d="M 370.5 413 L 371 437.5 L 370 437.5 L 370.5 413 Z " /><path fill="rgb(34,93,122)" stroke="rgb(34,93,122)" stroke-width="1" opacity="0.12549019607843137" d="M 193.5 418 L 195 438.5 Q 197.5 447 203.5 452 Q 207.7 456.3 215 457.5 L 212.5 458 Q 203.8 455.2 199 448.5 Q 190.2 438.3 193.5 418 Z " /><path fill="rgb(34,93,122)" stroke="rgb(34,93,122)" stroke-width="1" opacity="0.12549019607843137" d="M 310.5 435 L 317.5 444 L 325 446.5 L 322.5 447 Q 314.6 444.9 311 438.5 L 310.5 435 Z " /><path fill="rgb(34,93,122)" stroke="rgb(34,93,122)" stroke-width="1" opacity="0.12549019607843137" d="M 218.5 446 L 225 447.5 L 220.5 448 L 218.5 446 Z " /><path fill="rgb(34,93,122)" stroke="rgb(34,93,122)" stroke-width="1" opacity="0.12549019607843137" d="M 326.5 447 L 341 447.5 L 326.5 448 L 326.5 447 Z " /><path fill="rgb(34,93,122)" stroke="rgb(34,93,122)" stroke-width="1" opacity="0.12549019607843137" d="M 343.5 447 L 353 447.5 L 343.5 448 L 343.5 447 Z " /><path fill="rgb(34,93,122)" stroke="rgb(34,93,122)" stroke-width="1" opacity="0.12549019607843137" d="M 226.5 448 L 240 448.5 L 226.5 449 L 226.5 448 Z " /><path fill="rgb(34,93,122)" stroke="rgb(34,93,122)" stroke-width="1" opacity="0.12549019607843137" d="M 26 452 Q 29.7 450.6 28 456.5 L 29.5 459 L 27 458 L 26 452 Z " /><path fill="rgb(34,93,122)" stroke="rgb(34,93,122)" stroke-width="1" opacity="0.12549019607843137" d="M 165.5 457 L 164.5 459 L 163 458.5 L 165.5 457 Z " /><path fill="rgb(34,93,122)" stroke="rgb(34,93,122)" stroke-width="1" opacity="0.12549019607843137" d="M 256.5 457 L 261 457.5 L 249.5 460 L 240.5 460 L 240.5 459 L 249.5 459 L 256.5 457 Z " /><path fill="rgb(34,93,122)" stroke="rgb(34,93,122)" stroke-width="1" opacity="0.12549019607843137" d="M 313.5 457 L 325.5 460 L 342.5 460 L 343.5 459 Q 352.1 459.8 357 458 L 357 496.5 L 358.5 498 L 366.5 499 L 370.5 497 L 371 499 L 362.5 500 L 356 497.5 L 356 459.5 L 353.5 459 L 342.5 461 L 325.5 461 L 315.5 459 L 313.5 457 Z " /><path fill="rgb(34,93,122)" stroke="rgb(34,93,122)" stroke-width="1" opacity="0.12549019607843137" d="M 216.5 458 L 219 458.5 L 216.5 459 L 216.5 458 Z " /><path fill="rgb(34,93,122)" stroke="rgb(34,93,122)" stroke-width="1" opacity="0.12549019607843137" d="M 370.5 458 L 371 461.5 L 370 461.5 L 370.5 458 Z " /><path fill="rgb(34,93,122)" stroke="rgb(34,93,122)" stroke-width="1" opacity="0.12549019607843137" d="M 220.5 459 L 227 459.5 L 220.5 460 L 220.5 459 Z " /><path fill="rgb(34,93,122)" stroke="rgb(34,93,122)" stroke-width="1" opacity="0.12549019607843137" d="M 228.5 460 L 239 460.5 L 228.5 461 L 228.5 460 Z " /><path fill="rgb(34,93,122)" stroke="rgb(34,93,122)" stroke-width="1" opacity="0.12549019607843137" d="M 782.5 466 L 783 468.5 L 782 468.5 L 782.5 466 Z " /><path fill="rgb(34,93,122)" stroke="rgb(34,93,122)" stroke-width="1" opacity="0.12549019607843137" d="M 782.5 471 L 786 473.5 L 784.5 474 L 782 473 L 782.5 471 Z " /><path fill="rgb(34,93,122)" stroke="rgb(34,93,122)" stroke-width="1" opacity="0.12549019607843137" d="M 787.5 474 L 792 475.5 L 789.5 476 L 787.5 474 Z " /><path fill="rgb(34,93,122)" stroke="rgb(34,93,122)" stroke-width="1" opacity="0.12549019607843137" d="M 793.5 476 L 798 476.5 L 793.5 477 L 793.5 476 Z " /><path fill="rgb(34,93,122)" stroke="rgb(34,93,122)" stroke-width="1" opacity="0.12549019607843137" d="M 799.5 477 L 812 477.5 L 799.5 478 L 799.5 477 Z " /><path fill="rgb(34,93,122)" stroke="rgb(34,93,122)" stroke-width="1" opacity="0.12549019607843137" d="M 371.5 487 L 372 495.5 L 371 495.5 L 371.5 487 Z " /><path fill="rgb(34,93,122)" stroke="rgb(34,93,122)" stroke-width="1" opacity="0.12549019607843137" d="M 43.5 506 L 45.5 506 L 48.5 507 L 50.5 506 L 54 508.5 Q 56.1 514.4 51.5 513 L 47.5 510 L 43.5 510 L 41 512.5 L 40 521.5 L 41 526.5 L 45.5 531 L 53.5 531 L 54 533.5 L 52.5 536 L 50.5 535 L 45.5 536 L 38 531.5 L 37 528.5 L 37 510.5 L 39.5 507 L 43.5 506 Z M 42 508 L 42 509 L 51 509 L 51 511 L 52 511 L 52 508 L 42 508 Z M 40 510 L 38 514 L 39 530 L 40 530 L 39 525 L 39 517 L 40 516 L 40 510 Z M 41 530 Q 39 533 42 532 L 41 530 Z " /><path fill="rgb(34,93,122)" stroke="rgb(34,93,122)" stroke-width="1" opacity="0.12549019607843137" d="M 150.5 506 L 152 507.5 L 153 526.5 Q 150.5 528 152 533.5 L 150.5 535 L 148 533.5 L 148 508.5 L 150.5 506 Z M 151 508 L 150 533 L 151 533 L 151 508 Z " /><path fill="rgb(34,93,122)" stroke="rgb(34,93,122)" stroke-width="1" opacity="0.12549019607843137" d="M 265.5 506 L 271 508.5 L 277 524.5 L 277 526.5 L 279 532.5 Q 277 537 275 533.5 L 273 527 L 270 527 Q 271.1 524.3 268.5 525 L 268.5 524 Q 271.3 524.6 270 518.5 L 267.5 514 L 264 520.5 L 266 523.5 L 262 524 L 261.5 521 L 259 530.5 L 260 530.5 L 261 526 L 266 526.5 L 262 527 L 259.5 534 L 258.5 531 L 257.5 535 L 256 532.5 L 262 514.5 L 262 509.5 Q 259.8 508.3 262.5 507 L 265.5 506 Z M 264 508 L 265 512 L 266 512 Q 265 508 269 510 L 270 512 L 270 510 Q 269 507 264 508 Z M 265 512 L 264 515 L 265 515 L 265 512 Z M 271 512 L 270 515 L 271 515 L 271 512 Z M 264 515 L 263 518 L 264 518 L 264 515 Z M 272 515 L 271 518 L 272 518 L 272 515 Z M 263 518 L 262 521 L 263 521 L 263 518 Z M 273 518 L 272 521 L 273 521 L 273 518 Z M 274 521 L 273 524 L 271 525 L 274 526 L 276 533 L 277 533 L 274 521 Z " /><path fill="rgb(34,93,122)" stroke="rgb(34,93,122)" stroke-width="1" opacity="0.12549019607843137" d="M 477.5 506 L 484 507 Q 490.1 518.2 492 533 L 489.5 534 Q 487.3 533.3 488 529.5 L 484.5 526 L 483 525.5 L 484 522.5 L 484 518.5 Q 481.2 517.4 482 514 Q 479 512.8 480 516.5 Q 477.8 517.8 479 522.5 L 479.5 524 Q 474.3 525.8 476 520.5 L 480 509 L 482 508.5 L 477.5 508 L 477.5 509 L 479 509.5 L 471 532.5 L 473 533 L 475.5 526 L 482 526.5 L 475 527 Q 475.7 532.3 472.5 535 L 470 533.5 Q 470 527.5 473 524.5 L 474 515.5 L 476 511.5 L 475 507 L 477.5 506 Z M 485 524 L 485 526 L 488 526 Q 489 523 485 524 Z M 489 526 L 488 529 L 489 529 L 489 526 Z M 490 529 L 489 532 L 490 532 L 490 529 Z " /><path fill="rgb(34,93,122)" stroke="rgb(34,93,122)" stroke-width="1" opacity="0.12549019607843137" d="M 597.5 506 L 606.5 507 L 609 509.5 L 611 516.5 L 611 526.5 L 610 530.5 L 606.5 534 Q 603.8 536.8 597.5 536 L 591 533 L 590 529.5 L 590 513.5 L 591 509.5 L 593.5 507 L 597.5 506 Z M 596 508 L 595 510 L 605 509 L 596 508 Z M 606 509 L 607 511 Q 608 508 606 509 Z M 598 510 L 595 514 L 595 529 L 598 531 L 601 530 L 604 531 L 606 528 L 606 514 L 605 511 L 603 510 L 601 511 L 598 510 Z M 608 511 L 607 514 L 608 514 L 608 511 Z M 593 512 L 592 528 L 593 528 L 593 512 Z M 609 518 L 608 523 L 609 523 L 609 518 Z M 608 527 L 607 531 L 608 531 L 608 527 Z " /><path fill="rgb(34,93,122)" stroke="rgb(34,93,122)" stroke-width="1" opacity="0.12549019607843137" d="M 654.5 506 Q 657.7 508.3 664.5 507 L 668 509.5 L 669 512.5 L 668 516.5 L 668 518.5 L 670 525.5 Q 667.5 527 671 528.5 L 670 535 L 667 533.5 L 666 526.5 L 662.5 523 L 655 523 L 655 532.5 L 651 534 L 651 507.5 L 653.5 507 L 654.5 506 Z M 652 508 L 653 531 L 653 522 L 664 522 L 666 523 L 665 520 L 655 521 L 653 520 L 653 510 L 656 509 Q 662 507 664 510 L 665 510 L 664 508 L 652 508 Z M 657 511 Q 654 513 655 519 L 659 520 L 663 518 L 664 518 L 664 512 Q 662 510 657 511 Z " /><path fill="rgb(34,93,122)" stroke="rgb(34,93,122)" stroke-width="1" opacity="0.12549019607843137" d="M 717.5 506 Q 724.4 505.1 727 508.5 Q 726.3 511.8 721.5 511 L 719.5 511 Q 715 510 714 512.5 L 713 515.5 L 714 519 L 722.5 519 L 724 520.5 L 722.5 522 Q 715.8 520.2 714 523.5 L 713 525.5 L 716.5 531 L 720.5 530 L 727 532.5 L 718.5 533 L 715.5 532 L 715.5 533 L 717 533.5 L 713.5 534 Q 709.5 533.5 710 528.5 L 712 529.5 L 712.5 531 L 713 528.5 L 712 527.5 L 712 521 L 721 520.5 L 713.5 520 L 712 518.5 Q 710.9 510.9 715.5 509 L 725 508.5 L 714.5 508 L 711 512.5 L 710.5 527 L 710 518.5 L 709 517.5 L 710 513.5 L 709.5 512 Q 712.5 512.9 711 508.5 L 717.5 506 Z " /><path fill="rgb(34,93,122)" stroke="rgb(34,93,122)" stroke-width="1" opacity="0.12549019607843137" d="M 771.5 506 Q 780.4 504.6 784 508.5 L 783 513 L 780 513 Q 781.3 510 777.5 511 L 774.5 510 L 772 510.5 L 771 517 Q 780.2 516.9 784 523.5 L 783.5 527 L 780.5 522 Q 772.9 521.1 769 516.5 Q 767.8 510.3 771.5 509 Q 779.5 507 781.5 511 L 782 509.5 L 780.5 508 L 770.5 508 Q 765.8 509.2 767 516.5 L 770.5 520 L 781 524.5 L 782.5 529 L 784 528.5 Q 784.8 532.3 782.5 533 L 775.5 536 L 766 532.5 L 767.5 529 L 768.5 530 L 771 528.5 L 771.5 530 L 773.5 529 L 777.5 531 L 781 527.5 L 780 526.5 L 778.5 524 L 770.5 522 L 766 519 Q 764.3 510 769.5 507 L 771.5 506 Z M 770 532 L 770 533 L 772 533 L 770 532 Z " /><path fill="rgb(34,93,122)" stroke="rgb(34,93,122)" stroke-width="1" opacity="0.12549019607843137" d="M 94 507 L 98 508.5 Q 95.5 510 99 511.5 Q 100.3 516.3 98 517.5 L 98 519.5 L 99 524.5 L 99 526.5 L 100 528.5 L 98 528.5 L 98.5 531 L 107.5 531 L 109 534 L 106.5 533 L 105.5 535 L 103.5 534 L 101.5 534 L 98.5 535 L 96.5 531 L 96 534 L 94 533.5 L 94 520.5 L 94 518.5 L 94 507 Z " /><path fill="rgb(34,93,122)" stroke="rgb(34,93,122)" stroke-width="1" opacity="0.12549019607843137" d="M 194.5 507 Q 200.6 505.8 200 508.5 L 204.5 519 Q 206.8 519.8 206 517.5 L 209 509.5 L 211.5 507 Q 216.8 505.8 218 508.5 L 217 509.5 L 216.5 533 L 216 508 Q 212.2 507 211 509.5 L 211.5 511 L 215 510 L 215 533.5 L 213 534 L 214 530.5 L 213 529.5 L 213 517 L 210 518.5 L 209 521.5 L 209.5 523 L 208 523.5 L 208.5 525 Q 205.5 524.2 207 528 L 203 528 L 197.5 514 L 197 533.5 L 195.5 535 L 194 534.5 L 195 532.5 L 193 532.5 L 193 510.5 L 194 509.5 Q 191.8 508.3 194.5 507 Z M 195 508 L 195 513 L 196 513 Q 195 509 198 510 L 199 513 L 200 513 L 199 510 L 199 508 L 195 508 Z M 201 513 L 202 521 L 203 521 L 201 513 Z M 196 514 L 195 522 L 196 522 L 196 514 Z M 208 519 L 207 522 L 208 522 L 208 519 Z M 204 521 Q 202 525 206 527 L 207 525 L 207 522 L 206 524 L 204 521 Z " /><path fill="rgb(34,93,122)" stroke="rgb(34,93,122)" stroke-width="1" opacity="0.12549019607843137" d="M 312 507 L 331.5 507 L 332 509.5 L 324 512.5 L 325 514.5 Q 322.5 516 324 521.5 L 325 523.5 L 324 527.5 L 324 529.5 Q 325 534 322.5 535 Q 319.5 535.9 321 531.5 L 320 530.5 L 320 517.5 L 321 515.5 L 318.5 511 L 312 510 L 312 507 Z M 315 508 L 315 509 Q 320 508 322 510 L 323 512 L 323 511 L 325 509 L 331 509 L 315 508 Z M 323 513 L 322 533 L 323 533 L 323 513 Z " /><path fill="rgb(34,93,122)" stroke="rgb(34,93,122)" stroke-width="1" opacity="0.12549019607843137" d="M 371.5 507 L 375 508.5 L 374 514.5 L 375 516.5 L 374 519.5 L 375 522.5 L 374 534 Q 368.4 536.2 370 530.5 L 370 528.5 L 370 508.5 L 371.5 507 Z M 373 508 L 372 533 L 373 533 L 373 508 Z " /><path fill="rgb(34,93,122)" stroke="rgb(34,93,122)" stroke-width="1" opacity="0.12549019607843137" d="M 415.5 507 L 431.5 507 L 433 508.5 L 420 528.5 L 420.5 531 L 422.5 530 L 423.5 531 L 433 531 L 431.5 535 L 430 534.5 Q 432.3 533.3 429.5 532 L 420 532.5 L 429 533 L 428.5 535 L 415.5 535 L 414 531.5 L 425 512.5 L 421.5 510 L 416.5 511 Q 412 509 415.5 507 Z M 417 508 L 417 509 L 426 509 L 427 510 Q 429 509 428 512 L 430 511 L 430 508 L 417 508 Z M 426 516 L 424 519 L 426 518 L 426 516 Z M 424 519 L 422 522 L 424 521 L 424 519 Z M 421 524 L 418 528 L 419 529 L 421 526 L 421 524 Z M 418 529 L 416 532 Q 414 533 417 534 L 419 533 L 418 529 Z " /><path fill="rgb(34,93,122)" stroke="rgb(34,93,122)" stroke-width="1" opacity="0.12549019607843137" d="M 531 507 L 546.5 507 L 548 508.5 Q 551.8 513.2 550 523.5 L 550 525.5 Q 550.4 531.9 546.5 534 L 543.5 535 L 534 531.5 L 534 510.5 L 535.5 509 Q 542.3 507.7 545.5 510 L 544.5 508 L 533 508 L 533 533.5 L 531 534 L 531 507 Z M 539 510 L 535 513 L 536 524 L 535 527 Q 534 530 537 531 Q 545 533 546 528 L 546 515 L 545 513 L 539 510 Z M 547 510 L 547 513 L 547 529 L 546 530 L 547 531 L 548 530 Q 547 524 549 523 L 548 512 L 547 510 Z M 542 532 L 542 533 L 545 533 L 542 532 Z " /><path fill="rgb(34,93,122)" stroke="rgb(34,93,122)" stroke-width="1" opacity="0.12549019607843137" d="M 719.5 534 L 726 534.5 L 719.5 535 L 719.5 534 Z " /><path fill="rgb(0,0,0)" stroke="rgb(0,0,0)" stroke-width="1" opacity="0" d="M 0 0 L 1024 0 L 1024 768 L 0 768 L 0 0 Z M 915 128 L 914 129 L 902 130 L 889 134 L 868 147 Q 857 157 852 172 L 851 185 L 850 186 L 850 206 L 846 216 L 839 223 L 822 234 Q 810 242 808 259 L 803 240 L 791 222 Q 777 206 754 201 L 748 201 L 736 204 Q 722 209 713 218 Q 700 229 691 244 Q 686 251 677 255 L 669 254 L 665 250 L 661 235 L 659 214 L 658 213 L 657 189 L 656 188 L 654 170 L 649 154 L 644 146 L 640 142 L 635 144 L 624 156 L 618 168 L 614 184 L 614 196 L 616 207 L 623 227 Q 630 243 642 255 L 659 267 L 678 274 L 686 274 L 687 275 L 699 274 L 709 271 L 730 259 L 737 257 L 748 258 L 763 266 L 781 271 L 790 271 L 791 270 L 794 271 L 793 271 Q 776 286 771 313 L 771 330 L 772 335 L 780 351 Q 789 362 804 368 L 822 374 L 850 378 L 859 382 L 863 388 L 861 396 L 841 414 L 808 437 L 796 448 Q 797 450 794 449 L 794 386 L 791 373 L 785 363 L 775 356 L 762 353 L 739 353 L 717 357 Q 720 343 729 335 L 761 305 L 762 305 L 778 285 L 780 276 L 779 274 L 770 272 L 755 273 Q 743 276 735 283 L 732 287 L 730 288 Q 720 298 714 312 L 708 335 L 710 355 L 717 371 L 716 373 L 716 375 L 717 379 L 716 384 L 717 387 L 719 388 L 735 388 L 737 384 L 738 376 L 740 374 Q 756 372 766 377 Q 771 382 769 394 L 758 392 L 739 393 L 723 399 L 714 410 L 712 416 L 711 430 L 711 432 L 716 448 Q 722 454 731 457 L 747 460 L 772 459 L 785 456 L 788 457 L 783 464 L 782 473 L 790 476 L 800 478 L 819 477 Q 834 472 846 463 Q 870 442 878 406 L 878 384 Q 876 382 877 377 Q 875 365 868 358 Q 858 345 842 339 Q 833 333 828 324 L 826 317 L 826 307 L 825 306 L 824 293 Q 822 283 817 277 L 814 272 L 827 277 L 849 277 L 857 275 Q 870 270 881 262 Q 892 253 895 236 L 895 214 L 891 198 L 882 177 L 880 169 L 880 158 L 888 153 L 896 154 L 909 158 L 947 176 L 969 184 L 984 187 L 994 186 L 997 184 L 994 169 L 986 154 L 976 143 L 960 134 L 942 129 L 915 128 Z M 760 135 L 757 138 L 759 138 L 761 138 L 771 141 L 776 147 L 784 161 L 796 216 L 800 226 L 805 233 L 811 237 L 813 236 Q 819 230 823 222 L 827 206 Q 827 190 822 180 Q 815 164 804 154 Q 798 146 790 142 L 768 135 L 760 135 Z M 292 220 L 287 223 Q 286 228 289 228 L 289 254 L 295 256 L 297 254 L 297 222 Q 296 219 292 220 Z M 238 223 L 235 224 L 233 231 Q 232 233 228 232 Q 225 233 227 235 L 226 237 L 228 242 L 226 244 L 226 253 L 230 255 L 235 256 L 244 255 L 245 254 Q 244 249 246 248 L 245 247 L 244 235 L 240 231 L 241 225 L 238 223 Z M 91 224 L 87 225 L 82 230 L 83 239 L 87 242 L 96 245 L 95 249 L 89 247 L 82 247 L 82 253 L 86 255 Q 92 253 94 256 L 101 254 Q 106 252 104 243 L 100 238 L 89 234 L 90 231 L 95 231 L 95 233 Q 96 236 101 235 Q 103 233 102 227 Q 99 223 91 224 Z M 405 224 L 398 226 L 394 234 L 395 251 L 401 255 L 415 255 Q 417 254 416 249 L 414 248 Q 408 247 407 249 L 402 248 L 402 243 L 410 243 Q 412 242 411 238 L 410 236 L 402 236 L 402 231 L 416 231 L 416 227 L 415 225 Q 408 226 405 224 Z M 538 224 L 535 225 L 534 228 L 535 231 L 535 235 L 534 237 L 535 240 Q 536 250 534 255 L 542 255 L 543 254 L 542 253 L 542 233 L 541 232 L 543 228 L 538 224 Z M 151 225 L 149 226 Q 146 227 147 232 L 144 233 L 138 231 Q 130 231 127 235 L 128 244 Q 129 248 136 247 L 135 249 L 128 248 Q 125 249 126 254 L 133 256 L 142 254 L 144 251 Q 145 244 143 242 L 141 242 Q 144 241 143 236 L 145 237 Q 144 239 147 238 Q 146 249 149 254 L 152 255 L 163 255 L 164 254 L 163 252 L 163 248 L 155 248 L 154 240 Q 155 237 161 238 Q 163 237 162 232 L 159 231 L 157 231 Q 153 232 155 228 Q 155 225 151 225 Z M 211 226 L 205 234 L 200 231 L 188 232 L 186 234 L 186 254 Q 188 257 193 256 L 194 254 L 194 240 L 197 238 L 198 240 L 198 254 Q 200 257 205 255 L 206 252 Q 207 247 205 246 L 206 237 L 208 238 Q 207 247 210 253 L 213 255 L 219 256 L 221 256 L 224 255 Q 226 254 225 250 Q 224 247 219 248 Q 217 250 216 248 L 216 238 L 223 238 L 224 235 L 223 232 L 221 231 L 218 232 Q 215 231 216 228 Q 215 225 211 226 Z M 108 231 L 105 232 L 105 250 L 106 252 L 110 255 L 114 256 L 123 255 L 124 254 L 125 245 L 125 243 L 124 241 Q 123 236 125 235 L 123 231 L 118 232 L 116 236 L 116 246 L 117 247 L 114 249 Q 110 243 112 232 L 108 231 Z M 172 231 L 166 233 L 165 237 Q 164 246 166 252 L 173 256 L 178 255 L 183 255 L 183 248 L 179 249 Q 174 250 173 248 L 174 246 L 182 246 Q 183 248 184 246 L 183 235 Q 182 231 178 232 L 176 232 L 172 231 Z M 276 231 L 269 233 L 268 236 L 268 251 L 272 254 L 279 256 L 285 255 L 287 252 L 286 248 L 283 249 L 280 248 L 277 249 L 275 248 L 276 246 L 287 246 L 288 243 L 287 236 L 284 232 L 276 231 Z M 317 231 L 314 232 L 310 237 L 310 250 L 311 252 L 315 255 L 319 256 L 326 255 Q 329 253 327 248 L 321 249 L 318 248 L 317 246 Q 315 239 319 238 L 323 241 L 326 240 Q 329 240 327 234 Q 324 230 317 231 Z M 336 231 L 333 232 L 329 238 Q 328 247 330 253 L 334 255 Q 342 257 346 254 L 348 250 Q 350 240 347 235 Q 347 232 343 232 L 341 232 L 336 231 Z M 361 231 L 360 232 L 352 232 Q 349 233 351 235 L 350 237 L 351 238 L 351 251 L 350 254 L 357 256 L 358 255 L 358 241 L 361 238 L 363 240 L 363 255 L 369 255 L 370 254 L 370 239 L 374 238 L 374 254 L 376 255 Q 381 256 382 254 L 382 237 L 381 235 L 377 231 Q 370 230 368 233 L 361 231 Z M 424 231 L 422 232 L 418 236 Q 420 242 417 244 L 419 253 L 423 255 L 434 255 L 436 252 L 434 248 L 430 249 Q 426 250 425 248 L 425 239 L 428 238 L 430 241 Q 434 242 435 240 L 434 232 L 424 231 Z M 444 231 L 441 232 L 437 236 L 436 244 L 436 246 L 439 254 L 445 256 L 449 256 L 455 253 L 456 249 Q 457 240 455 235 Q 452 230 444 231 Z M 468 231 Q 466 234 460 232 L 458 234 L 458 254 Q 459 256 465 255 L 466 254 L 466 240 L 468 238 L 470 239 L 470 255 L 477 255 L 477 236 L 476 233 L 468 231 Z M 487 231 L 484 232 L 480 236 L 479 241 L 480 252 L 481 254 L 488 256 L 497 254 L 499 251 Q 498 246 500 245 L 498 235 Q 497 231 492 232 L 490 232 L 487 231 Z M 513 231 L 501 233 L 501 254 L 503 255 Q 508 256 509 254 L 509 243 L 508 242 L 509 239 L 513 238 L 513 254 L 515 255 Q 520 256 521 254 L 521 246 L 520 245 L 523 238 Q 526 237 525 240 L 525 242 Q 524 246 526 248 L 525 255 L 530 256 L 532 255 L 532 236 L 531 234 L 526 231 L 520 233 L 513 231 Z M 551 231 L 546 232 L 545 235 L 546 240 L 544 246 L 545 253 L 553 256 L 562 255 L 563 254 L 563 245 L 563 243 L 564 240 L 563 236 Q 560 230 551 231 Z M 247 232 L 245 234 L 250 252 L 257 256 L 260 255 L 263 252 L 263 248 L 268 234 Q 266 230 260 232 L 257 246 L 253 234 Q 252 231 247 232 Z M 831 282 L 827 285 L 828 292 L 833 302 L 847 315 L 861 321 L 872 323 L 889 323 L 890 322 L 902 321 Q 915 318 925 310 L 937 298 L 941 289 Q 942 284 939 285 L 938 290 Q 933 298 922 300 L 912 300 L 898 297 L 880 290 L 850 282 L 831 282 Z M 402 302 L 401 303 L 393 303 L 386 305 L 381 305 L 377 306 L 374 309 L 374 320 L 375 322 L 377 323 L 384 323 L 384 453 L 385 455 L 392 457 L 415 459 L 416 460 L 429 460 L 430 459 L 442 458 L 452 454 L 456 451 Q 455 448 458 449 L 464 436 L 466 426 L 466 418 L 467 417 L 467 387 L 466 386 L 465 373 L 462 365 Q 456 356 444 353 L 425 354 L 408 361 L 408 312 L 409 311 L 408 308 L 409 304 Q 408 300 402 302 Z M 580 320 L 577 321 L 571 328 Q 570 336 572 341 L 581 346 Q 589 347 593 344 L 596 341 L 598 334 Q 598 327 595 324 Q 591 318 580 320 Z M 68 352 L 67 353 L 56 354 L 44 359 Q 41 360 42 357 L 41 355 L 27 355 L 26 358 L 26 451 L 26 453 L 27 458 L 30 459 L 31 458 L 39 458 L 41 458 L 42 458 L 42 375 L 60 367 L 69 367 L 70 366 L 80 367 L 83 369 L 87 375 L 89 386 L 89 455 L 90 456 L 91 458 L 104 458 L 104 381 L 103 377 L 117 369 L 123 367 L 132 367 L 133 366 L 142 367 L 146 369 L 149 374 L 151 382 L 151 456 L 152 458 L 155 459 L 159 458 L 165 459 L 167 456 L 167 397 L 166 396 L 165 374 L 162 364 L 153 356 L 137 352 L 129 352 L 118 354 L 99 363 L 88 355 L 82 353 L 69 353 L 68 352 Z M 216 353 L 206 355 L 203 357 L 201 358 L 201 381 Q 203 383 209 382 L 212 377 L 213 368 L 215 366 L 230 366 L 231 365 L 232 366 L 242 366 L 247 368 L 254 378 L 256 395 L 241 392 L 223 392 Q 221 394 217 393 L 205 398 Q 195 405 193 419 Q 191 439 199 449 L 210 457 L 229 461 L 250 460 L 262 457 L 268 457 L 271 455 L 271 388 L 270 387 L 269 375 L 264 365 Q 258 358 249 354 L 244 353 L 216 353 Z M 325 353 L 315 355 L 307 359 Q 292 371 294 399 L 293 402 L 295 434 L 300 448 L 311 457 L 326 461 L 343 461 L 354 459 L 356 460 L 356 498 L 363 500 L 371 499 L 372 496 L 372 488 L 371 487 L 371 362 L 366 358 L 353 354 L 325 353 Z M 529 353 L 519 356 L 515 359 Q 510 360 512 356 L 506 356 L 505 355 L 490 355 L 488 357 L 488 458 L 494 459 L 511 459 L 512 458 L 512 393 L 517 383 Q 520 376 530 375 L 532 375 L 535 374 L 537 382 L 537 387 L 539 388 L 554 388 L 555 387 L 555 356 L 544 353 L 529 353 Z M 650 353 L 635 357 L 626 362 Q 620 366 618 373 L 617 384 L 616 385 L 617 386 L 617 394 L 623 404 Q 629 411 639 414 L 655 419 L 659 419 L 666 422 L 668 426 L 667 434 L 661 438 L 639 438 L 638 437 L 623 436 L 617 434 L 614 437 L 614 449 L 614 451 L 615 455 L 642 460 L 656 460 L 671 457 L 686 449 L 692 439 L 693 434 Q 695 418 688 411 L 679 403 L 665 398 L 657 397 L 645 392 Q 640 389 641 380 L 645 376 L 649 375 L 668 374 L 670 379 L 671 387 L 673 388 L 690 388 L 690 360 L 688 357 L 675 354 L 650 353 Z M 572 355 L 572 362 L 572 364 L 572 388 L 571 389 L 572 391 L 572 424 L 572 426 L 571 431 Q 570 436 572 438 Q 573 442 571 444 L 572 448 L 571 457 L 575 459 L 579 458 L 580 459 L 596 459 L 597 458 L 597 357 L 596 355 L 572 355 Z M 44 506 L 40 507 L 37 511 L 37 529 L 38 532 L 46 536 L 51 535 L 53 536 L 54 534 L 54 531 L 46 531 L 43 528 L 42 529 L 42 528 L 40 522 L 41 513 L 44 510 L 48 510 L 52 513 Q 56 514 54 509 L 51 506 L 49 507 L 46 506 L 44 506 Z M 151 506 L 148 509 L 148 534 L 151 535 L 152 534 Q 151 528 153 527 L 152 508 L 151 506 Z M 266 506 L 263 507 Q 260 508 262 510 L 262 515 L 256 533 L 258 535 L 258 534 L 260 534 L 262 527 L 268 526 L 270 526 L 273 527 L 275 534 Q 277 537 279 533 L 276 526 L 277 523 L 276 523 L 276 522 L 271 509 L 266 506 Z M 478 506 L 475 507 L 476 512 L 474 516 L 473 525 Q 470 527 470 534 L 473 535 Q 476 532 475 527 L 485 526 L 488 530 Q 487 533 490 534 L 492 533 Q 490 518 484 507 L 478 506 Z M 598 506 L 594 507 L 591 510 L 590 514 L 590 530 L 591 533 L 598 536 Q 604 537 607 534 L 610 531 L 611 527 L 611 517 L 609 510 L 607 507 L 598 506 Z M 655 506 L 654 507 L 651 508 L 651 534 L 655 533 L 655 523 L 663 523 L 666 527 L 667 534 L 670 535 L 671 529 Q 667 527 670 526 L 668 519 L 668 517 L 669 513 L 668 510 L 665 507 Q 658 508 655 506 Z M 718 506 L 711 509 Q 712 513 710 512 L 710 514 L 709 518 L 710 519 L 710 527 L 710 529 Q 710 534 714 534 L 727 533 L 721 530 L 717 531 L 715 528 L 714 528 L 713 526 L 714 524 Q 716 520 723 522 L 724 521 L 723 519 L 714 519 L 713 516 L 714 513 Q 715 510 720 511 L 722 511 Q 726 512 727 509 Q 724 505 718 506 Z M 772 506 L 770 507 Q 764 510 766 519 L 771 522 L 779 524 L 780 527 L 781 528 L 778 531 L 774 529 L 772 530 L 771 529 L 769 530 L 768 529 L 766 533 L 776 536 L 784 532 L 783 528 L 784 524 Q 780 517 771 517 L 772 511 L 775 510 L 778 511 Q 781 510 780 513 L 783 513 L 784 509 Q 780 505 772 506 Z M 94 507 L 94 519 L 93 520 L 94 521 L 94 534 L 98 533 L 99 535 L 102 534 L 104 534 L 106 535 L 106 534 L 108 534 Q 110 535 109 533 L 108 531 L 98 531 L 99 527 L 99 525 L 98 520 L 98 518 Q 100 516 99 512 Q 95 510 98 509 L 94 507 Z M 195 507 Q 192 508 194 510 L 193 511 L 193 533 L 195 533 L 194 535 L 196 535 L 197 534 L 198 514 L 203 528 L 207 528 Q 205 524 209 525 L 208 524 L 210 523 L 209 522 L 210 519 L 213 517 L 213 530 L 214 531 L 213 534 L 217 533 L 217 510 L 218 509 Q 217 506 212 507 L 209 510 L 206 518 Q 207 520 205 519 L 200 509 Q 201 506 195 507 Z M 312 507 L 312 510 L 319 511 L 321 516 L 320 518 L 320 531 L 321 532 Q 319 536 323 535 Q 325 534 324 530 L 324 528 L 325 524 L 324 522 Q 323 516 325 515 L 324 513 L 332 510 L 332 507 L 312 507 Z M 372 507 L 370 509 L 370 529 L 370 531 Q 368 536 374 534 L 375 523 L 374 520 L 375 517 L 374 515 L 375 509 L 372 507 Z M 416 507 Q 412 509 417 511 L 422 510 L 425 513 L 414 532 L 416 535 L 429 535 L 429 533 L 431 533 L 430 535 L 432 535 L 433 531 L 424 531 L 423 530 L 421 531 L 420 529 L 433 509 L 432 507 L 416 507 Z M 531 507 L 531 534 L 534 533 Q 541 532 544 535 L 547 534 Q 550 532 550 526 L 550 524 Q 552 513 548 509 L 547 507 L 531 507 Z M 720 534 L 720 535 L 726 535 L 720 534 Z " /><path fill="rgb(0,0,0)" stroke="rgb(0,0,0)" stroke-width="1" opacity="0" d="M 134.5 238 L 138 239.5 L 135.5 240 L 134.5 238 Z " /><path fill="rgb(0,0,0)" stroke="rgb(0,0,0)" stroke-width="1" opacity="0" d="M 234.5 238 L 237 238.5 L 234.5 239 L 234.5 238 Z " /><path fill="rgb(0,0,0)" stroke="rgb(0,0,0)" stroke-width="1" opacity="0" d="M 275.5 238 L 279 238.5 L 275.5 239 L 275.5 238 Z " /><path fill="rgb(0,0,0)" stroke="rgb(0,0,0)" stroke-width="1" opacity="0" d="M 337.5 238 L 341 239.5 Q 341.9 245.9 339.5 249 L 336 248 L 336 239.5 L 337.5 238 Z " /><path fill="rgb(0,0,0)" stroke="rgb(0,0,0)" stroke-width="1" opacity="0" d="M 444 238 L 448 238 L 448 249 L 444 247.5 L 443 245.5 L 444 241.5 L 444 239.5 L 444 238 Z " /><path fill="rgb(0,0,0)" stroke="rgb(0,0,0)" stroke-width="1" opacity="0" d="M 487 238 Q 490.8 237 492 239.5 L 492 247.5 L 490.5 249 L 487 247.5 L 487 238 Z " /><path fill="rgb(0,0,0)" stroke="rgb(0,0,0)" stroke-width="1" opacity="0" d="M 551.5 238 L 555 238.5 L 551.5 239 L 551.5 238 Z " /><path fill="rgb(0,0,0)" stroke="rgb(0,0,0)" stroke-width="1" opacity="0" d="M 234 246 Q 239.6 244.1 238 249 L 234 247.5 L 234 246 Z " /><path fill="rgb(0,0,0)" stroke="rgb(0,0,0)" stroke-width="1" opacity="0" d="M 552.5 246 Q 557.8 244.5 556 249 L 551 249 L 551 247.5 L 552.5 246 Z " /><path fill="rgb(0,0,0)" stroke="rgb(0,0,0)" stroke-width="1" opacity="0" d="M 805.5 264 L 807 267.5 L 805.5 267 L 804 266.5 L 805.5 264 Z " /><path fill="rgb(0,0,0)" stroke="rgb(0,0,0)" stroke-width="1" opacity="0" d="M 332.5 366 L 350.5 367 L 356 370.5 L 356 445.5 L 354.5 446 L 353.5 447 Q 345.3 445.3 341.5 448 L 340.5 447 L 325.5 447 Q 317 445.5 313 439.5 L 310 434.5 L 310 425.5 L 309 424.5 L 309 390.5 L 310 389.5 L 311 377.5 L 317.5 370 L 324.5 367 Q 330.8 368.7 332.5 366 Z " /><path fill="rgb(0,0,0)" stroke="rgb(0,0,0)" stroke-width="1" opacity="0" d="M 431.5 374 Q 437.3 374.3 440 377.5 L 441 388.5 L 442 389.5 L 442 409.5 L 442 411.5 L 441 418.5 L 441 420.5 L 441 427.5 L 439 434 L 431.5 437 L 412.5 437 L 410.5 438 L 408 435.5 L 408 386.5 L 416.5 379 L 431.5 374 Z " /><path fill="rgb(0,0,0)" stroke="rgb(0,0,0)" stroke-width="1" opacity="0" d="M 229.5 404 L 231.5 405 L 246.5 405 L 256 408.5 L 256 445.5 Q 256 446.5 251.5 446 L 243.5 448 L 225.5 448 L 217.5 446 L 213 443 Q 207.3 435.4 209 419.5 Q 210.5 412 215.5 408 L 222.5 405 Q 228 406.5 229.5 404 Z " /><path fill="rgb(0,0,0)" stroke="rgb(0,0,0)" stroke-width="1" opacity="0" d="M 741.5 414 L 769 414 L 769 437 L 764.5 438 L 742.5 438 L 739 437 Q 740 434 737 435 L 737 432.5 L 736 431.5 L 736 420.5 L 739.5 415 L 741.5 414 Z " /><path fill="rgb(0,0,0)" stroke="rgb(0,0,0)" stroke-width="1" opacity="0" d="M 538.5 510 L 545 512.5 L 546 514.5 L 546 527.5 Q 544.5 532.5 536.5 531 Q 534.3 530.3 535 526.5 L 536 523.5 L 535 512.5 L 538.5 510 Z " /><path fill="rgb(0,0,0)" stroke="rgb(0,0,0)" stroke-width="1" opacity="0" d="M 597.5 510 L 600.5 511 L 602.5 510 L 605 511 L 606 513.5 L 606 527.5 L 603.5 531 L 600.5 530 L 597.5 531 L 595 528.5 L 595 513.5 L 597.5 510 Z " /><path fill="rgb(0,0,0)" stroke="rgb(0,0,0)" stroke-width="1" opacity="0" d="M 656.5 511 Q 661.9 510.4 664 512 L 664 517.5 L 662.5 518 L 658.5 520 L 655 518.5 Q 653.5 512.5 656.5 511 Z " /><path fill="rgb(0,0,0)" stroke="rgb(0,0,0)" stroke-width="1" opacity="0" d="M 267.5 514 Q 271.1 517.2 270 524 Q 266.2 525 265 522.5 L 264 520.5 L 267.5 514 Z " /><path fill="rgb(0,0,0)" stroke="rgb(0,0,0)" stroke-width="1" opacity="0" d="M 480 514 Q 483 512.8 482 516.5 Q 485 517.5 484 522.5 L 480.5 524 Q 477.8 522.8 479 517.5 L 480 514 Z " /><path fill="rgb(86,142,78)" stroke="rgb(86,142,78)" stroke-width="1" opacity="0.8941176470588236" d="M 914.5 129 L 932.5 129 L 933.5 130 L 940.5 130 L 950.5 132 Q 969.8 137.7 982 150.5 L 993 168.5 L 996 182.5 L 993.5 185 L 983.5 186 L 982.5 185 L 971.5 184 L 959.5 180 L 930.5 168 L 908.5 157 L 896.5 153 L 887.5 152 L 880 155.5 L 879 167.5 L 893 209.5 L 894 214.5 L 894 234.5 L 888 251.5 L 877.5 263 L 853.5 275 L 832.5 277 L 818.5 274 Q 811.8 271.8 808 266.5 L 807 264.5 L 813 245.5 L 824.5 233 L 845 218.5 Q 849.7 213.7 851 205.5 L 851 182.5 L 854 168.5 Q 859.8 154.8 870.5 146 L 891.5 134 L 914.5 129 Z " /><path fill="rgb(86,142,78)" stroke="rgb(86,142,78)" stroke-width="1" opacity="0.8941176470588236" d="M 766.5 137 Q 792.7 141.3 806 158.5 Q 816 170 822 185.5 L 824 192.5 L 825 206.5 L 821 221.5 L 812 235 Q 807.3 234.6 805 230.5 L 797 211.5 L 793 189.5 L 785 158.5 Q 781.1 147.9 773.5 141 L 766.5 138 L 766.5 137 Z " /><path fill="rgb(86,142,78)" stroke="rgb(86,142,78)" stroke-width="1" opacity="0.8941176470588236" d="M 637.5 144 Q 643.3 143.3 644 147.5 L 649 156.5 L 653 170.5 L 653 175.5 L 655 182.5 L 655 190.5 L 656 191.5 L 656 199.5 L 657 200.5 L 658 220.5 L 659 221.5 L 661 239.5 L 665 251.5 L 669.5 256 L 673.5 257 Q 686.5 253 693 242.5 L 710.5 221 Q 721.9 209.9 738.5 204 L 743.5 203 L 758.5 203 Q 780.8 209.2 793 225.5 L 804 244.5 L 806 252.5 L 806 261.5 L 802.5 267 L 800 267.5 L 807.5 269 L 815 275.5 L 823 291.5 L 824 302.5 L 825 303.5 L 825 314.5 L 827 323.5 Q 830.6 331.9 837.5 337 L 855.5 347 L 865 355.5 Q 871.9 362.6 875 373.5 L 878 395.5 L 877 396.5 L 877 406.5 L 875 414.5 L 867 433.5 Q 858.1 451.1 843.5 463 Q 833.3 471.8 818.5 476 L 798.5 477 L 786.5 474 L 782 470.5 L 783 465.5 L 790 454 L 771.5 457 L 762.5 457 L 761.5 458 L 746.5 458 L 745.5 457 L 733.5 456 L 725.5 453 L 717 445.5 L 713 436.5 L 712 425.5 L 713 424.5 L 714 413.5 Q 717.6 405.1 724.5 400 L 733.5 396 L 743.5 394 L 763.5 394 L 764.5 395 L 771 395 L 770 381.5 L 767 375 L 756.5 372 L 743.5 372 Q 742.3 374.3 737.5 373 L 736 374.5 L 734 386 L 719.5 386 L 718 384.5 L 718 359.5 L 719.5 359 L 736.5 355 L 762.5 355 L 772.5 357 Q 780.9 360.1 786 366.5 L 790 375.5 L 792 385.5 L 792 451 L 794.5 451 L 814.5 433 L 845.5 411 L 862 395.5 Q 864.8 392.8 864 386.5 L 860.5 382 L 849.5 377 L 833.5 374 L 827.5 374 L 808.5 369 Q 795.2 364.3 786 355.5 Q 778.4 348.1 774 337.5 L 772 328.5 L 772 313.5 Q 774.5 312 773 306.5 L 778 292.5 L 789 275 L 797 269.5 L 792.5 269 L 791.5 270 L 778.5 270 L 770.5 268 L 750.5 258 L 737.5 256 L 724.5 260 Q 716.6 267.1 705.5 271 L 699.5 273 L 684.5 274 Q 654.5 269 639 249.5 Q 626.7 235.8 620 216.5 L 615 196.5 L 615 182.5 Q 619.3 157.8 635.5 145 L 637.5 144 Z M 748 411 L 740 413 L 734 421 Q 733 429 735 435 L 743 440 L 766 440 L 771 439 L 771 416 L 772 415 L 767 412 L 758 412 L 757 411 Q 751 410 750 412 L 748 411 Z " /><path fill="rgb(86,142,78)" stroke="rgb(86,142,78)" stroke-width="1" opacity="0.8941176470588236" d="M 293.5 222 L 295 223.5 L 295 252.5 L 292.5 254 L 291 252.5 L 291 226.5 L 289 223 L 293.5 222 Z " /><path fill="rgb(86,142,78)" stroke="rgb(86,142,78)" stroke-width="1" opacity="0.8941176470588236" d="M 91.5 226 L 100 227 L 100 233 L 97 233 L 95.5 229 Q 89.7 228.2 88 231.5 Q 87 236 89.5 237 L 98.5 240 L 102 243.5 Q 103.1 251.1 98.5 253 L 91.5 254 L 88.5 253 Q 84.8 253.8 84 251.5 Q 82.8 247.8 86.5 249 L 87.5 250 L 96.5 250 Q 99 249 98 244.5 L 95.5 242 Q 88 242 85 237.5 L 84 230.5 L 87.5 227 L 91.5 226 Z " /><path fill="rgb(86,142,78)" stroke="rgb(86,142,78)" stroke-width="1" opacity="0.8941176470588236" d="M 236 226 Q 240.1 224.3 239 228.5 L 235 230 L 236 226 Z " /><path fill="rgb(86,142,78)" stroke="rgb(86,142,78)" stroke-width="1" opacity="0.8941176470588236" d="M 537 226 L 540 227.5 Q 541.3 231.3 537.5 230 Q 534.8 228.8 537 227.5 L 537 226 Z " /><path fill="rgb(86,142,78)" stroke="rgb(86,142,78)" stroke-width="1" opacity="0.8941176470588236" d="M 151.5 227 L 153 230.5 Q 150.8 231.7 153.5 233 L 160 233 L 160 236 L 153.5 236 L 152 237.5 L 153 240.5 L 152 242.5 L 153 245.5 L 153 250 L 161.5 250 L 162 252.5 Q 160.8 255.3 155.5 254 L 150 251.5 L 149 249.5 L 149 237.5 L 147.5 236 Q 144.5 236.7 146 233 L 149 233 L 149 228 L 150.5 228 L 151.5 227 Z " /><path fill="rgb(86,142,78)" stroke="rgb(86,142,78)" stroke-width="1" opacity="0.8941176470588236" d="M 399.5 227 L 413.5 227 L 414 230 L 404.5 229 L 401 230 L 400 238 L 409 238 L 409 241 L 401.5 241 L 400 242.5 Q 399.2 248.3 402.5 250 L 414 250 L 414 254 L 402.5 254 L 398 252 L 396 243.5 L 396 235.5 Q 398.3 234.3 397 229.5 L 399.5 227 Z " /><path fill="rgb(86,142,78)" stroke="rgb(86,142,78)" stroke-width="1" opacity="0.8941176470588236" d="M 211.5 228 L 214 228 L 214 233 L 222 233 L 222 236 L 214 236 L 214 248.5 L 215.5 250 L 223 250 L 221.5 254 Q 213.2 255.3 211 250.5 L 210 236 Q 205.5 237.5 207 233 Q 211.5 234.8 210 229.5 L 211.5 228 Z " /><path fill="rgb(86,142,78)" stroke="rgb(86,142,78)" stroke-width="1" opacity="0.8941176470588236" d="M 106.5 233 Q 111 232.5 111 233.5 L 111 248.5 Q 112.9 251.8 119 250 L 119 233.5 L 122 233 L 122 245.5 L 123 248.5 L 122 253 L 111.5 254 L 108 251.5 L 106 245.5 L 107 244.5 L 107 234.5 L 106.5 233 Z " /><path fill="rgb(86,142,78)" stroke="rgb(86,142,78)" stroke-width="1" opacity="0.8941176470588236" d="M 132.5 233 L 140.5 233 L 142 234.5 Q 143.9 240.8 139 239 L 137.5 236 Q 133 235 132 237.5 Q 131.5 241.5 134.5 242 Q 140.1 241.9 142 245.5 Q 143.3 251.8 139.5 253 L 131.5 254 L 127 253 L 127.5 250 L 138 250 L 138 246.5 L 129 243 L 128 236.5 L 132.5 233 Z " /><path fill="rgb(86,142,78)" stroke="rgb(86,142,78)" stroke-width="1" opacity="0.8941176470588236" d="M 170.5 233 Q 179.2 231.3 182 235.5 L 183 244 L 171.5 244 L 170 245.5 L 172.5 250 L 181.5 250 L 182 253 L 172.5 254 L 167 249.5 L 166 239.5 L 168 234 L 170.5 233 Z M 173 236 L 170 240 Q 171 242 178 241 L 179 237 L 173 236 Z " /><path fill="rgb(86,142,78)" stroke="rgb(86,142,78)" stroke-width="1" opacity="0.8941176470588236" d="M 188 233 L 194.5 234 Q 195.7 231.8 200.5 233 L 204 237.5 L 204 252.5 L 200 254 L 200 239.5 L 197.5 236 L 192 238.5 L 192 252.5 L 190.5 254 L 188 253.5 L 188 233 Z " /><path fill="rgb(86,142,78)" stroke="rgb(86,142,78)" stroke-width="1" opacity="0.8941176470588236" d="M 229 233 L 239.5 233 L 242 235.5 L 243 237.5 L 243 253 L 234.5 254 L 232.5 254 L 228 250.5 L 228 243.5 L 229.5 243 Q 232.3 239.6 239 241 Q 240 237.2 237.5 236 Q 232.3 234.8 231 237.5 Q 231.7 240.1 229 239 L 229 233 Z M 234 244 Q 231 244 231 249 L 233 250 L 239 250 L 239 244 L 234 244 Z " /><path fill="rgb(86,142,78)" stroke="rgb(86,142,78)" stroke-width="1" opacity="0.8941176470588236" d="M 247 233 L 251 233 L 251 234.5 L 255 248.5 L 256.5 250 L 258 248.5 L 262 233 L 266 233.5 Q 262.4 238.9 262 247.5 L 258.5 254 Q 253.4 254.6 252 251.5 L 247 233 Z " /><path fill="rgb(86,142,78)" stroke="rgb(86,142,78)" stroke-width="1" opacity="0.8941176470588236" d="M 273.5 233 Q 281 232 284 234 Q 286 237.1 285 244 L 274.5 244 L 273 245.5 L 275.5 250 L 284.5 250 L 285 251.5 Q 283 255 276.5 254 L 271 251.5 L 269 246.5 L 270 245.5 L 270 235.5 L 271.5 234 L 273.5 233 Z M 276 236 L 273 239 L 275 241 L 282 241 L 282 239 Q 281 235 276 236 Z " /><path fill="rgb(86,142,78)" stroke="rgb(86,142,78)" stroke-width="1" opacity="0.8941176470588236" d="M 315.5 233 L 323.5 233 L 325 234.5 Q 326.9 239.9 323.5 239 Q 322.7 235.2 317.5 236 Q 314.1 239.6 315 247.5 L 316 250 L 326 250.5 L 325 253 L 322.5 254 L 319.5 253 L 317.5 254 L 312 250.5 L 311 239.5 L 315.5 233 Z " /><path fill="rgb(86,142,78)" stroke="rgb(86,142,78)" stroke-width="1" opacity="0.8941176470588236" d="M 334.5 233 Q 344 231 346 236.5 L 347 247.5 L 343.5 253 L 336.5 254 L 331 250.5 L 330 239.5 L 334.5 233 Z M 337 236 L 334 239 L 334 249 L 336 250 L 342 250 Q 344 247 343 239 Q 342 235 337 236 Z " /><path fill="rgb(86,142,78)" stroke="rgb(86,142,78)" stroke-width="1" opacity="0.8941176470588236" d="M 352 233 L 358.5 234 Q 359.8 231.8 364.5 233 L 368.5 235 Q 370.5 232 376.5 233 L 379 234 L 380 237.5 L 380 252.5 L 376 254 L 376 237.5 L 374.5 236 L 368 238 L 368 252.5 L 366.5 253 L 364 254 L 364 237.5 L 362.5 236 L 356 238 L 356 253.5 L 352 254 L 352 233 Z " /><path fill="rgb(86,142,78)" stroke="rgb(86,142,78)" stroke-width="1" opacity="0.8941176470588236" d="M 422.5 233 L 431.5 233 L 433 234.5 Q 434.9 240.8 430 239 L 428.5 236 Q 423.1 234.1 424 237.5 L 423 238.5 L 423 247.5 L 424 250 L 433 250 L 433 253 L 426.5 254 L 423.5 253 L 420 250.5 L 419 248.5 L 419 237.5 L 422.5 233 Z " /><path fill="rgb(86,142,78)" stroke="rgb(86,142,78)" stroke-width="1" opacity="0.8941176470588236" d="M 442.5 233 Q 451 231 453 235.5 L 454 237.5 L 454 249.5 L 453 252 L 449.5 254 L 443.5 254 L 439 251.5 L 438 249.5 L 438 237.5 L 440.5 234 L 442.5 233 Z M 444 236 L 442 238 L 442 249 L 444 250 L 450 250 L 451 247 L 450 238 Q 449 235 444 236 Z " /><path fill="rgb(86,142,78)" stroke="rgb(86,142,78)" stroke-width="1" opacity="0.8941176470588236" d="M 460 233 L 466.5 234 Q 467.8 231.8 472.5 233 Q 478.3 238.7 476 252.5 L 472 254 L 471 251.5 Q 473.5 250 472 244.5 L 471 241.5 L 472 238.5 Q 471.5 235.5 467.5 236 L 463 239.5 L 464 242.5 L 463 243.5 L 463 253 L 460.5 254 L 460 233 Z " /><path fill="rgb(86,142,78)" stroke="rgb(86,142,78)" stroke-width="1" opacity="0.8941176470588236" d="M 485.5 233 Q 494.5 231.5 497 236.5 L 497 249.5 L 494.5 253 L 486.5 254 L 482 250.5 L 481 238.5 L 483 234 L 485.5 233 Z M 488 236 L 485 237 L 485 249 L 487 250 L 493 250 L 493 238 Q 492 235 488 236 Z " /><path fill="rgb(86,142,78)" stroke="rgb(86,142,78)" stroke-width="1" opacity="0.8941176470588236" d="M 503.5 233 L 505.5 233 L 509.5 234 Q 510.8 231.8 515.5 233 L 519.5 235 Q 521.5 232 527.5 233 L 531 237.5 L 531 252.5 L 527.5 254 Q 524.8 252.8 526 247.5 Q 528.2 246.3 527 241.5 L 527 239.5 L 524.5 236 L 519 238.5 L 518 240.5 L 518 252.5 L 516.5 254 L 515 252.5 L 515 238.5 L 514 236 Q 509 235.2 507 238.5 L 507 252.5 L 505.5 254 L 503 252.5 L 503.5 233 Z " /><path fill="rgb(86,142,78)" stroke="rgb(86,142,78)" stroke-width="1" opacity="0.8941176470588236" d="M 537 233 L 540 233.5 L 540 254 Q 536.2 255.5 537 252.5 L 537 250.5 L 537 233 Z " /><path fill="rgb(86,142,78)" stroke="rgb(86,142,78)" stroke-width="1" opacity="0.8941176470588236" d="M 548.5 233 Q 558.8 230.8 561 236.5 L 561 252.5 L 558.5 253 L 553.5 254 L 550.5 253 Q 545.5 253.5 545 249.5 Q 544.3 243.3 548.5 242 L 556.5 241 L 558 239.5 L 555.5 236 Q 549.4 234.8 550 237.5 L 547.5 239 L 546 235.5 L 548.5 233 Z M 552 244 Q 549 245 550 250 L 558 250 L 558 246 Q 557 243 552 244 Z " /><path fill="rgb(86,142,78)" stroke="rgb(86,142,78)" stroke-width="1" opacity="0.8941176470588236" d="M 762.5 274 L 768.5 274 L 777 276 Q 778 282.3 775 285.5 L 759 305 Q 740.6 318 725 335.5 L 716 350.5 L 714.5 360 L 711 351.5 L 710 333.5 Q 715.9 301.4 736.5 284 L 751.5 276 L 762.5 274 Z " /><path fill="rgb(86,142,78)" stroke="rgb(86,142,78)" stroke-width="1" opacity="0.8941176470588236" d="M 835.5 283 L 850.5 284 L 896.5 299 Q 902.6 298.4 905.5 301 L 919.5 302 Q 921 299.5 926.5 301 L 933.5 297 L 930 301.5 Q 930.8 303.8 928.5 303 Q 918 314.5 900.5 319 L 887.5 320 L 886.5 321 L 873.5 321 L 862.5 319 L 851.5 315 L 837 303.5 Q 830.7 296.8 829 285.5 L 835.5 283 Z " /><path fill="rgb(86,142,78)" stroke="rgb(86,142,78)" stroke-width="1" opacity="0.8941176470588236" d="M 395.5 304 L 407 304 L 407 310.5 L 406 311.5 L 406 333.5 L 406 335.5 L 406 361.5 L 407.5 363 L 424.5 356 L 443.5 355 L 452.5 358 L 460 364.5 L 463 372.5 L 464 385.5 L 465 386.5 L 465 416.5 L 461 438.5 Q 458.5 446.5 452.5 451 L 447.5 454 L 436.5 457 L 416.5 458 L 415.5 457 L 405.5 457 L 404.5 456 L 390.5 455 L 386 452.5 L 385 322.5 L 383.5 321 L 377 321 L 377 315.5 L 376 312.5 L 376 310.5 L 377.5 308 L 395.5 304 Z M 426 373 Q 413 376 406 386 L 406 437 L 407 439 L 414 439 L 415 440 L 432 439 L 439 436 L 443 428 L 443 418 L 444 417 L 444 397 L 443 396 L 444 392 Q 442 388 443 381 L 441 377 L 438 373 L 426 373 Z " /><path fill="rgb(86,142,78)" stroke="rgb(86,142,78)" stroke-width="1" opacity="0.8941176470588236" d="M 581.5 321 L 584.5 322 L 586.5 321 L 594 325.5 Q 596.7 329.3 595 337.5 L 593 342 Q 589.1 345.3 579.5 344 L 574 339.5 Q 571.5 336 573 328.5 L 575 324 L 581.5 321 Z " /><path fill="rgb(86,142,78)" stroke="rgb(86,142,78)" stroke-width="1" opacity="0.8941176470588236" d="M 67.5 353 Q 89.3 352.7 99.5 364 Q 112.5 353 136.5 353 L 147.5 355 L 154.5 358 L 161 364.5 L 164 371.5 L 165 389.5 L 166 390.5 L 166 456.5 L 164.5 458 L 154.5 458 L 152 454.5 L 152 381.5 Q 149.8 380.3 151 375.5 L 145.5 368 L 141.5 366 L 132.5 365 L 131.5 366 L 123.5 366 L 113.5 369 Q 106.2 371.2 102 376.5 L 103 379.5 L 103 457 Q 100 459 92.5 458 L 90 457 L 90 386.5 L 89 385.5 L 88 374.5 L 84.5 369 L 78.5 366 L 70.5 365 L 69.5 366 L 56.5 367 L 46.5 371 L 41 375.5 L 41 456.5 L 39.5 458 L 29.5 458 L 28 456.5 L 27 451.5 L 27 358.5 L 28 356 L 40.5 356 L 41 360 L 43.5 360 L 55.5 355 L 66.5 354 L 67.5 353 Z " /><path fill="rgb(86,142,78)" stroke="rgb(86,142,78)" stroke-width="1" opacity="0.8941176470588236" d="M 215.5 354 L 243.5 354 L 248.5 355 Q 258.9 358.1 264 366.5 L 268 375.5 L 269 387.5 L 270 388.5 L 270 455 L 249.5 459 L 227.5 460 L 209.5 456 L 200 448.5 Q 191.5 438.6 194 417.5 Q 196.2 406.2 203.5 400 Q 210.1 394.6 220.5 393 L 242.5 393 L 257 396 L 255 378.5 Q 253.1 370.9 247.5 367 L 241.5 365 L 213.5 365 Q 210.1 368.6 211 376.5 L 208.5 381 Q 203.3 382.3 202 379.5 L 201 375.5 L 202 374.5 L 202 358.5 L 203.5 357 L 215.5 354 Z M 223 404 L 215 407 L 210 413 L 208 420 Q 206 434 211 442 L 221 448 Q 225 447 227 449 L 240 449 L 241 448 L 256 447 L 257 446 L 257 408 L 256 406 L 246 404 L 223 404 Z " /><path fill="rgb(86,142,78)" stroke="rgb(86,142,78)" stroke-width="1" opacity="0.8941176470588236" d="M 323.5 354 L 345.5 354 Q 347 356.5 352.5 355 L 370 361 L 371 364.5 L 371 412.5 L 370 413.5 L 370 437.5 L 371 438.5 L 371 457.5 L 370 461.5 L 371 462.5 L 371 496.5 L 364.5 499 Q 363.3 496.8 358.5 498 L 357 496.5 L 357 458.5 L 353.5 458 L 342.5 460 L 325.5 460 L 310.5 456 L 301 447.5 L 298 440.5 L 295 424.5 L 295 387.5 L 299 370.5 L 305.5 361 L 314.5 356 L 323.5 354 Z M 334 365 L 333 366 L 325 366 L 316 370 L 310 378 L 308 389 L 308 427 L 311 439 Q 316 446 327 448 L 353 448 L 354 447 L 357 447 L 357 370 L 350 366 L 334 365 Z " /><path fill="rgb(86,142,78)" stroke="rgb(86,142,78)" stroke-width="1" opacity="0.8941176470588236" d="M 528.5 355 L 544.5 355 L 553 357 L 553 386 L 539 386 L 537 372 L 523.5 374 L 518 378.5 Q 512.2 384.2 510 393.5 L 511 394.5 L 511 455.5 L 509.5 457 L 491.5 457 L 490 455.5 L 490 357 L 509.5 357 L 511 358.5 Q 509.5 362.9 512.5 362 L 520.5 357 L 528.5 355 Z " /><path fill="rgb(86,142,78)" stroke="rgb(86,142,78)" stroke-width="1" opacity="0.8941176470588236" d="M 648.5 355 L 675.5 356 L 684.5 358 L 688 360.5 L 688 386 L 673 386 L 671 374.5 L 669.5 373 L 653.5 372 Q 652 374.5 646.5 373 L 642 375.5 L 639 383.5 L 640 386.5 Q 640.5 392.1 644.5 394 L 675.5 404 Q 682.9 406.6 687 412.5 Q 693 419.5 691 434.5 Q 688.4 443.4 682.5 449 L 675.5 453 L 662.5 457 L 641.5 458 L 640.5 457 L 621.5 455 L 616 452.5 L 616 437.5 L 617.5 436 L 622.5 438 L 636.5 439 L 637.5 440 L 659.5 440 L 665.5 438 L 668 435.5 Q 671.6 432.6 670 424.5 L 666.5 420 L 643.5 414 L 628.5 406 L 622 399.5 Q 617.4 392.6 618 380.5 L 619 378.5 L 619 376.5 Q 620.8 367.3 627.5 363 L 636.5 358 L 648.5 355 Z " /><path fill="rgb(86,142,78)" stroke="rgb(86,142,78)" stroke-width="1" opacity="0.8941176470588236" d="M 575.5 356 L 576.5 357 L 595 357 L 595 456.5 L 594.5 457 L 575.5 457 L 574 455.5 L 574 357.5 L 575.5 356 Z " /><path fill="rgb(86,142,78)" stroke="rgb(86,142,78)" stroke-width="1" opacity="0.8941176470588236" d="M 41.5 508 L 40 510.5 L 39 524.5 L 40 529.5 L 42.5 532 L 44 532.5 L 42.5 533 L 40 532 Q 36.7 525.7 38 513.5 L 41.5 508 Z " /><path fill="rgb(86,142,78)" stroke="rgb(86,142,78)" stroke-width="1" opacity="0.8941176470588236" d="M 43.5 508 L 51.5 508 L 52 510.5 L 51 510.5 L 50.5 509 L 43.5 509 L 43.5 508 Z " /><path fill="rgb(86,142,78)" stroke="rgb(86,142,78)" stroke-width="1" opacity="0.8941176470588236" d="M 150.5 508 L 151 532.5 L 150 532.5 L 150.5 508 Z " /><path fill="rgb(86,142,78)" stroke="rgb(86,142,78)" stroke-width="1" opacity="0.8941176470588236" d="M 195 508 L 199 508 L 199 509.5 L 205.5 524 L 208.5 517 L 209 518.5 L 205.5 527 L 197.5 510 Q 194.9 509.2 196 512.5 L 195 512.5 L 195 508 Z " /><path fill="rgb(86,142,78)" stroke="rgb(86,142,78)" stroke-width="1" opacity="0.8941176470588236" d="M 212.5 508 L 216 508.5 L 216 532.5 L 215 532.5 L 215 510.5 L 212.5 510 L 211 510.5 L 212.5 508 Z " /><path fill="rgb(86,142,78)" stroke="rgb(86,142,78)" stroke-width="1" opacity="0.8941176470588236" d="M 263.5 508 Q 268.8 506.8 270 509.5 L 277 532.5 L 276 532.5 L 274 526 L 271 524.5 L 273 524 L 269 510 Q 265.3 508.5 266 511.5 L 262 524 Q 267.5 522.9 270 525.5 L 261 526 L 258.5 533 L 258 531.5 L 265 510.5 L 263.5 508 Z " /><path fill="rgb(86,142,78)" stroke="rgb(86,142,78)" stroke-width="1" opacity="0.8941176470588236" d="M 314.5 508 L 331 508.5 L 324.5 509 L 323 510.5 L 322.5 512 L 322 510 Q 319.9 508.4 314.5 509 L 314.5 508 Z " /><path fill="rgb(86,142,78)" stroke="rgb(86,142,78)" stroke-width="1" opacity="0.8941176470588236" d="M 372.5 508 L 373 532.5 L 372 532.5 L 372.5 508 Z " /><path fill="rgb(86,142,78)" stroke="rgb(86,142,78)" stroke-width="1" opacity="0.8941176470588236" d="M 416.5 508 L 429.5 508 L 430 510.5 Q 422.5 519.5 418 531.5 L 418.5 533 L 415 532.5 L 426 515.5 L 428 510 Q 424.7 507.9 416.5 509 L 416.5 508 Z " /><path fill="rgb(86,142,78)" stroke="rgb(86,142,78)" stroke-width="1" opacity="0.8941176470588236" d="M 477.5 508 Q 483 507 484 510.5 L 483.5 512 L 481.5 509 Q 479.3 508.3 480 510.5 L 476 520.5 L 476 524 L 484 524.5 L 482.5 526 Q 475.8 524.3 474 527.5 L 473 533 L 471 532.5 L 479 509.5 L 477.5 508 Z " /><path fill="rgb(86,142,78)" stroke="rgb(86,142,78)" stroke-width="1" opacity="0.8941176470588236" d="M 533 508 L 544.5 508 L 548 511.5 L 549 522.5 Q 546.5 524 548 529.5 L 544.5 533 L 541 532.5 L 546 530.5 L 547 528.5 L 547 512.5 L 546 510 Q 543 508 535.5 509 L 534 510.5 L 534 531.5 L 534.5 533 L 533 532.5 L 533 508 Z " /><path fill="rgb(86,142,78)" stroke="rgb(86,142,78)" stroke-width="1" opacity="0.8941176470588236" d="M 595.5 508 Q 603.7 506.9 607 509 L 608 513.5 L 607 513.5 Q 607.5 509.5 604.5 509 Q 597 508 594 510 L 593 512.5 L 592.5 528 L 592 512.5 L 595.5 508 Z " /><path fill="rgb(86,142,78)" stroke="rgb(86,142,78)" stroke-width="1" opacity="0.8941176470588236" d="M 652 508 L 663.5 508 L 666 510.5 L 665.5 512 L 665 510 Q 662.3 508.1 655.5 509 L 653 510 L 653 519.5 L 654.5 521 Q 661.5 521.7 665 520 L 665.5 518 L 666 519.5 L 666 521.5 L 667 523.5 L 665.5 523 L 663.5 522 L 653 522 L 652.5 531 L 652 508 Z " /><path fill="rgb(86,142,78)" stroke="rgb(86,142,78)" stroke-width="1" opacity="0.8941176470588236" d="M 714.5 508 L 725 508.5 L 715.5 509 L 713 511.5 L 712 518.5 L 713.5 520 L 721 520.5 L 712 521 Q 710.8 528 714 531.5 L 712 530.5 L 711 528.5 L 711 512.5 L 714.5 508 Z " /><path fill="rgb(86,142,78)" stroke="rgb(86,142,78)" stroke-width="1" opacity="0.8941176470588236" d="M 770.5 508 L 780.5 508 L 782 509.5 L 781.5 511 Q 779.5 507 771.5 509 Q 767.8 510.3 769 516.5 L 771.5 519 L 782 523.5 L 783 528.5 L 779.5 533 L 778 532.5 L 781 530.5 L 782 526.5 L 779.5 523 L 770.5 520 L 767 516.5 Q 765.8 509.3 770.5 508 Z " /><path fill="rgb(86,142,78)" stroke="rgb(86,142,78)" stroke-width="1" opacity="0.8941176470588236" d="M 322.5 513 L 323 532.5 L 322 532.5 L 322.5 513 Z " /><path fill="rgb(86,142,78)" stroke="rgb(86,142,78)" stroke-width="1" opacity="0.8941176470588236" d="M 195.5 514 L 196 521.5 L 195 521.5 L 195.5 514 Z " /><path fill="rgb(86,142,78)" stroke="rgb(86,142,78)" stroke-width="1" opacity="0.8941176470588236" d="M 608.5 518 L 609 522.5 L 608 522.5 L 608.5 518 Z " /><path fill="rgb(86,142,78)" stroke="rgb(86,142,78)" stroke-width="1" opacity="0.8941176470588236" d="M 485 524 Q 488.8 522.5 488 525.5 L 490 531.5 L 489 531.5 L 486.5 525 L 485 525.5 L 485 524 Z " /><path fill="rgb(86,142,78)" stroke="rgb(86,142,78)" stroke-width="1" opacity="0.8941176470588236" d="M 607.5 527 L 608 530.5 L 606 531.5 L 607.5 527 Z " /><path fill="rgb(86,142,78)" stroke="rgb(86,142,78)" stroke-width="1" opacity="0.8941176470588236" d="M 593.5 530 L 597 532.5 L 595.5 533 L 593.5 530 Z " /><path fill="rgb(86,142,78)" stroke="rgb(86,142,78)" stroke-width="1" opacity="0.8941176470588236" d="M 420.5 532 L 430 532.5 L 420.5 533 L 420.5 532 Z " /><path fill="rgb(86,142,78)" stroke="rgb(86,142,78)" stroke-width="1" opacity="0.8941176470588236" d="M 715.5 532 L 718 532.5 L 715.5 533 L 715.5 532 Z " /><path fill="rgb(86,142,78)" stroke="rgb(86,142,78)" stroke-width="1" opacity="0.8941176470588236" d="M 769.5 532 L 772 532.5 L 769.5 533 L 769.5 532 Z " /></svg>